<?xml version="1.0" encoding="utf-8"?>
<!-- Generator: Adobe Illustrator 24.1.1, SVG Export Plug-In . SVG Version: 6.00 Build 0)  -->
<svg version="1.1" id="Layer_1" xmlns="http://www.w3.org/2000/svg" xmlns:xlink="http://www.w3.org/1999/xlink" x="0px" y="0px"
	 viewBox="0 0 1280 1024" style="enable-background:new 0 0 1280 1024;" xml:space="preserve">
<style type="text/css">
	.st0{clip-path:url(#SVGID_2_);}
	.st1{fill:#0000E6;}
	.st2{fill:#0000CC;}
	.st3{fill:#0000B3;}
	.st4{fill:#000099;}
	.st5{fill:#000080;}
	.st6{fill:#00007A;}
	.st7{fill:#000073;}
	.st8{fill:#00006D;}
	.st9{fill:#000066;}
	.st10{fill:#000060;}
</style>
<g id="Layer_3_1_">
</g>
<g id="Layer_2_1_">
</g>
<g id="Layer_4">
	<g>
		<g>
			<defs>
				<path id="SVGID_1_" d="M247.3,332.5c0.3,0.4,0.6,0.8,0.9,1.3l0,0c25,45.2,154.9,113.4,135.8,160.3
					c-28.6,63.5-275.3,124.3-325.2,209c-28.6,48.6,25.6,131.5,72.7,151.6c84.8,36.3,330.2,177.6,351,271.9c0.3,1.5,1.1,3,1.7,4.5
					c0.1,0.1,0.1,0.3,0.2,0.4l18.6,49.1c0.2,0.5,0.4,0.9,0.6,1.3c19.1,39.1-91.1,112.8,68.5,170.8c611.6,222.2,790.2-83.2,851-118
					c7.3-4.3,22.9-325.6,9.9-397.2V99c-14.1-78.1-345-199.3-347.8-200c-47.6-12.7-538.2-65.9-630.8,75.1c-3.2,4.9-8.1,8.6-13.8,10.6
					C379.6,5.9,98.4,144.6,247.3,332.5z"/>
			</defs>
			<clipPath id="SVGID_2_">
				<use xlink:href="#SVGID_1_"  style="overflow:visible;"/>
			</clipPath>
			<g class="st0">
				<path class="st1" d="M-190.2,1588.8c-150.6-58.9-309.3-91.3-467.6-69c-72.4,9.8-144.4,31.9-215.1,68l-9.4,188.5L300,1835.2
					c-158.5-86.1-315.4-176.2-476.3-241C-180.8,1592.3-185.5,1590.7-190.2,1588.8z"/>
				<path class="st2" d="M1453.4,7.8L-788.5-103.9l-84.3,1691.7c70.6-36.1,142.7-58.4,215.1-68.2c158.3-22,317,10.1,467.6,69
					c4.7,1.9,9.4,3.8,14.1,5.4c160.8,64.6,317.7,154.8,476.3,241l1059.6,52.8L1453.4,7.8z"/>
				<path class="st3" d="M-186.2,1295c4.4,2.1,8.8,4.4,13,6.5c268.8,137.1,529,340.9,810.9,456.5c239.8,98.2,486.3,93,727.9,12.2
					L1453.4,7.8L-788.5-103.9l-67.3,1351.2c75.3-37.7,152.5-57.7,229.4-61.4C-475.4,1177.8-327,1224.8-186.2,1295z"/>
				<path class="st4" d="M-788.5-103.9l-50.3,1009.2c80.1-39.4,162.2-56.2,243.4-53.1c144.1,5.3,282.1,67.5,413,149
					c4.1,2.6,8,5.1,12.1,7.7c250,158.5,495.3,368.9,765.5,490.7c256.5,115.7,523.2,107.1,783.2,9.3L1453.3,7.8L-788.5-103.9z"/>
				<path class="st5" d="M-564.2,518.4c136.9,21,264.8,96.1,385.7,189.1c3.8,2.8,7.4,5.8,11.2,8.6
					C64,896.3,294.4,1112.5,552.9,1241.3c272.5,135.6,560.5,124.1,838.7,6.9L1453.4,7.8L-788.5-103.9l-33.2,665.6
					C-736.7,519.7-649.5,505.5-564.2,518.4z"/>
				<path class="st6" d="M1453.4,7.8L-788.5-103.9l-16,320.3c89.7-44.8,182.2-55.7,271.6-31.7c129.7,35,247.3,124.7,358.4,229
					c3.5,3.2,6.8,6.5,10.3,9.7c212.5,201.7,428,424,674.9,559.5c287.8,158.1,597.9,145.2,893.9,5.4l48.9-980.5L1453.4,7.8z"/>
				<path class="st7" d="M-161.2,130.7C32.4,354,233.1,581.5,468.3,724.4c284.4,173,597.2,173,894.4,32.1
					c18.4-8.7,36.6-18,54.9-27.7l35.9-721.1L-384.8-83.8c76,54,146.4,126.5,214.2,203.9C-167.5,123.5-164.4,127.2-161.2,130.7z"/>
				<path class="st8" d="M1453.4,7.8L-90.7-69.1C64.7,140.8,231.2,334.5,425.9,466c260.6,176,551.7,203.5,831.2,91.1
					c58.5-23.5,116.6-53.6,173.4-89.6L1453.4,7.8L1453.4,7.8z"/>
				<path class="st9" d="M1151.5,357.5c67.4-21.6,134.1-52.9,199.3-93.3c31.4-19.4,62.5-41.2,93-64.9l9.5-191.5L113-59
					c83.3,102.4,172.6,192.8,270.6,266.5C620.4,385.9,889.8,441.7,1151.5,357.5z"/>
				<path class="st10" d="M1046,158.1c107-24.4,213-76.8,312.3-155L345.2-47.4C557.8,130.5,803.6,213.4,1046,158.1z"/>
			</g>
		</g>
	</g>
</g>
</svg>
