<?xml version="1.0" encoding="utf-8"?>
<!-- Generator: Adobe Illustrator 24.1.1, SVG Export Plug-In . SVG Version: 6.00 Build 0)  -->
<svg version="1.1" xmlns="http://www.w3.org/2000/svg" xmlns:xlink="http://www.w3.org/1999/xlink" x="0px" y="0px"
	 viewBox="0 0 500 500" style="enable-background:new 0 0 500 500;" xml:space="preserve">
<style type="text/css">
	.st0{display:none;}
	.st1{display:inline;}
	.st2{fill:#2D2E92;}
	.st3{fill:#4525BA;}
	.st4{fill:#FFFFFF;}
	.st5{fill:#00B58C;}
	.st6{fill:#1C6095;}
	.st7{fill:#00D393;}
	.st8{fill:#007B75;}
	.st9{fill:#007A70;}
	.st10{fill:#006568;}
	.st11{fill:#003C3F;}
	.st12{fill:#00817D;}
	.st13{fill:#FFA02F;}
	.st14{fill:#D7E8FF;}
	.st15{fill:#D8F1FF;}
	.st16{fill:#EBF5FF;}
	.st17{fill:#1E3DCF;}
	.st18{opacity:8.000000e-02;fill:#FFFFFF;enable-background:new    ;}
	.st19{opacity:0.47;fill:url(#SVGID_1_);enable-background:new    ;}
	.st20{fill:#B5D0FF;}
	.st21{fill:#DAEEFF;}
	.st22{fill:#1D2131;}
	.st23{fill:#010200;}
	.st24{opacity:0.1;}
	.st25{fill:#1E57FF;}
	.st26{fill:#092489;}
	.st27{fill:#FF8724;}
	.st28{fill:#DF0051;}
	.st29{fill:#091956;}
	.st30{fill:#091140;}
	.st31{fill:#1E3BD2;}
	.st32{fill:#1E2293;}
	.st33{fill:#0226B7;}
	.st34{fill:#1E8BFF;}
	.st35{fill:#4900A4;}
	.st36{fill:#39007F;}
	.st37{fill:#4900C9;}
	.st38{opacity:0.99;fill:#FFFFFF;enable-background:new    ;}
	.st39{font-family:'Barlow';}
	.st40{font-size:9px;}
	.st41{fill:#000F1F;}
	.st42{fill:#000D3A;}
	.st43{fill:#001467;}
	.st44{fill:#001F5E;}
	.st45{fill:#002460;}
	.st46{fill:#0099FF;}
	.st47{fill:#0089F7;}
	.st48{fill:#FFCDA9;}
	.st49{fill:#0068D9;}
	.st50{fill:#3BFAFF;}
	.st51{fill:#131637;}
	.st52{fill:#1446E3;}
	.st53{fill:#00216C;}
	.st54{fill:#002A88;}
	.st55{opacity:0.44;fill:#00216C;enable-background:new    ;}
	.st56{fill:#1AD1FF;}
</style>
<g id="Layer_30_1_" class="st0">
	<g id="Layer_8" class="st1">
		<path class="st2" d="M119.2,156.8c0,0-0.6-144.9,84.1-95.4c34.2,20,46,61.5,100,49.3c74.6-16.8,137.8-48.6,143.3,18.2
			c4.6,55.3-25.9,114.3-40.4,158.1c-10.7,32.5-13.1,31.8,27.2,73.8c26,27.1,18.6,54.7-32.8,40c-64.3-18.3-97.1-13.7-166.2,1.6
			c-74.2,16.3-118.1,12.1-138.5-3.7c-55.4-42.7,18.3-158.2,18.3-158.2l-13.5-44.2"/>
	</g>
</g>
<g id="Layer_29_1_">
	<g id="Layer_7">
		<path class="st3" d="M453.9,177.3H304c0,0,7.8-22.1,24.6-25.2c16.8-3.1,16.7,11.9,16.7,11.9s31.9-48.8,48.6-49.6
			c16.6-0.8-1.4,49.6-1.4,49.6s18.1-27.3,26.8-22.9s4.3,26.5,4.3,26.5s21.9-27.3,26.9-18.6C455.3,157.8,453.9,177.3,453.9,177.3z"/>
	</g>
</g>
<g id="Layer_28_1_">
	<g id="Layer_6">
		<path class="st3" d="M294.4,112.7H180.5c0,0,5.9-16.8,18.6-19.1c12.7-2.3,12.7,9,12.7,9s24.2-37.1,36.9-37.7
			c12.6-0.6-1.1,32-1.1,32s13.7-15,20.3-11.7c6.6,3.3,3.3,20.2,3.3,20.2s16.7-20.7,20.4-14.1C295.5,97.9,294.4,112.7,294.4,112.7z"
			/>
	</g>
</g>
<g id="Layer_27_1_">
	<g id="Layer_5">
		<path class="st3" d="M117.1,173.8h89.8c0,0-4.7-13.2-14.7-15.1c-10.1-1.8-10,7.1-10,7.1s-19.1-29.3-29.1-29.7
			c-10-0.5,0.9,29.7,0.9,29.7s-10.8-16.4-16.1-13.7c-5.2,2.6-2.6,15.9-2.6,15.9s-13.1-16.3-16.1-11.1
			C116.2,162,117.1,173.8,117.1,173.8z"/>
	</g>
</g>
<g id="Layer_26_1_">
	<g id="Layer_4">
		<path class="st3" d="M204.2,139.4h59.4c0,0-3.1-8.8-9.7-10c-6.7-1.2-6.6,4.7-6.6,4.7s-12.7-19.4-19.3-19.7
			c-6.6-0.3,0.6,19.7,0.6,19.7s-7.2-10.8-10.6-9.1c-3.4,1.7-1.7,10.5-1.7,10.5s-8.7-10.8-10.7-7.4
			C203.6,131.6,204.2,139.4,204.2,139.4z"/>
	</g>
</g>
<g id="Layer_25_1_">
	<g id="Layer_3">
	</g>
</g>
<g id="Layer_24_1_">
	<g id="Layer_32">
		<g id="Layer_9">
		</g>
	</g>
</g>
<g id="Layer_23_1_">
	<g id="Layer_31">
		<g>
			<rect x="290.4" y="342.9" class="st4" width="6.3" height="9.5"/>
			<path class="st4" d="M313.2,340.6h-2.1h-1.5h-3.9c0,0,1-2.1,0.3-5.7c-0.2-0.9-0.7-1.4-1.3-1.8c-0.9-0.5-2,0.2-2.1,1.2
				c0,0,0.3,0.9-0.7,4.6c-1.1,4.3-4.6,4.8-4.6,4.8v7.7c0.7,0.2,1.4,0.6,1.8,0.9s0.9,0.4,1.4,0.4h7.2h1.6h2c0.7,0,1.5-0.6,1.5-1.3
				l0,0c0.1-0.6-0.2-1-0.5-1.2c0-0.1,0-0.2,0-0.4v0.4c0.6-0.1,1.1-0.9,1.1-1.8l0,0c0-0.9-0.4-1.5-1-1.6v-0.1h0.4
				c0.7,0,1.3-0.8,1.3-1.6l0,0c0-0.7-0.6-1.5-1.3-1.5h0.4c0.7,0,1.3-0.9,1.3-1.6l0,0C314.6,341.4,314,340.6,313.2,340.6z"/>
		</g>
	</g>
</g>
<g id="Layer_22_1_">
	<g id="Layer_30">
		<g>
			<rect x="328.7" y="249.8" class="st4" width="8" height="11.9"/>
			<path class="st4" d="M354.1,247.9h-2.2h-1.6h-4.1c0,0,1.1-2.3,0.4-6c-0.2-1-0.8-1.5-1.4-1.8c-1-0.5-2.1,0.2-2.2,1.2
				c0,0,0.3,1-0.7,4.8c-1.2,4.5-4.8,5-4.8,5v8c0.8,0.2,1.5,0.6,1.9,1c0.4,0.3,1,0.4,1.5,0.4h7.6h1.7h2.1c0.8,0,1.6-0.6,1.6-1.4l0,0
				c0.1-0.6-0.3-1.1-0.5-1.3c0-0.1,0-0.2,0-0.4v0.4c0.6-0.1,1.1-0.9,1.1-1.9l0,0c0-1-0.5-1.6-1.1-1.7v-0.1h0.4
				c0.8,0,1.4-0.9,1.4-1.6l0,0c0-0.8-0.6-1.5-1.4-1.5h0.4c0.8,0,1.4-0.9,1.4-1.7l0,0C355.4,248.7,354.8,247.9,354.1,247.9z"/>
		</g>
	</g>
</g>
<g id="Layer_21_1_">
	<g id="Layer_29">
		<path class="st5" d="M358.4,367.7h-66.5c0,0,3.4-9.8,10.9-11.2c7.4-1.4,7.4,5.3,7.4,5.3s14.1-21.6,21.5-22s-0.6,22-0.6,22
			s8-12.1,11.9-10.2s1.9,11.8,1.9,11.8s9.7-12.1,11.9-8.2C359,359,358.4,367.7,358.4,367.7z"/>
	</g>
</g>
<g id="Layer_20_1_">
	<g id="Layer_28">
		<path class="st6" d="M320.9,391.4h36.9c0,0-1.9-5.4-6-6.2c-4.1-0.8-4.1,2.9-4.1,2.9s-7.9-12-11.9-12.2c-4.1-0.2,0.4,12.2,0.4,12.2
			s-4.5-6.7-6.6-5.6s-1.1,6.5-1.1,6.5s-5.4-6.7-6.6-4.6C320.6,386.6,320.9,391.4,320.9,391.4z"/>
	</g>
</g>
<g id="Layer_19_1_">
	<g id="Layer_27">
		<g>
			<g>
				<path class="st5" d="M384.2,383.3c0,0-15.4-11.6-4.2-28.7l2.2,3.9l-0.2-8.1l2.4,3.9l-1.1-6.2l5.6-10.7l2.1,4.3l-0.4-7.7
					c0,0,4.6-7,12.7-10.1s8-8.1,8-8.1s4.6,8,0.9,20.5l-9.4,4.3l9.9-0.4l-0.5,6.7l-8.3,2.1l8.3,0.5l-0.2,3.1l-5,0.1l5.2,2.7l0.1,1.1
					l-2.7-0.5l2.2,1.5l-0.8,1.6l-5.1,2.2l3.5,0.9l-3.9,9.5l-10.2,3.2l9.9-1.4C405,373.5,398.4,384.2,384.2,383.3z"/>
				<path class="st7" d="M396.3,328c0.6-0.1,1.2-0.3,1.8-0.4c5-1.1,10.4-1.5,15.5-2.8c-0.4-5.7-2.3-9-2.3-9s0.1,5-8,8.1
					C400.5,325,398.2,326.5,396.3,328z"/>
				<path class="st7" d="M392.2,338.3c4.5,0.3,9,0.7,13.5,0.9l6.5-3c0.6-2.1,1-4.1,1.3-6c-3.9,0.8-7.9,1.3-11.9,2.1
					c-3.7,0.7-7.3,1.7-10.8,2.9l0.1,2.9C391.3,338.3,391.7,338.3,392.2,338.3z"/>
				<path class="st7" d="M387.9,362.9c4.6,1.5,9.2,2.7,13.8,4.4c1.3,0.5,3,1.1,4.7,1.8l1.1-2.6c-8.4-3.8-16.3-8.3-25.3-10.4v2.4
					l-1.6-2.8c-0.4-0.1-0.8-0.2-1.2-0.2c-0.6,1-1.1,2-1.5,2.9C381,360.3,384.5,361.8,387.9,362.9z"/>
				<path class="st7" d="M382.9,369.3c-2.2-1.4-4.4-2.9-6.9-3.7c-0.1,0.8-0.1,1.7,0,2.4c3.4,3.4,8.1,5.4,12.4,7.5
					c3.1,1.5,6.1,3.3,9.2,4.7c0.4-0.2,0.8-0.5,1.2-0.8c-0.9-0.3-1.7-0.6-2.2-0.9C391.6,376.2,387.5,372.4,382.9,369.3z"/>
				<path class="st7" d="M395.6,370.8c-0.8-0.3-1.6-0.5-2.5-0.8c1.3,1,2.7,1.9,4.1,2.7c0.6,0.3,1.1,0.6,1.7,0.9l2.5-0.8
					C399.5,372.1,397.5,371.5,395.6,370.8z"/>
				<path class="st7" d="M389.3,347.7c6.6,1.4,13.1,2.8,19.5,4.7c0.2,0.1,0.4,0.1,0.6,0.2h2.5l0.2-3.1l-8.3-0.5l8.3-2.1l0.1-1.9
					c-7-0.2-14-0.8-21-1.3c-1.9-0.1-3.7-0.2-5.6-0.3l-1.7,3.3C385.7,347,387.5,347.3,389.3,347.7z"/>
				<path class="st7" d="M385.8,380.4c-2.4-1.2-4.9-2.4-7.2-3.7c2.4,4.2,5.6,6.6,5.6,6.6c2.3,0.2,4.4,0,6.4-0.4
					C389,382,387.4,381.2,385.8,380.4z"/>
				<path class="st7" d="M394.1,354.2c0.8,0.3,1.6,0.7,2.4,1c3.7,1.6,7.3,3.4,10.9,5.2l3.3-1.4l0.1-0.1c-4.8-1.6-9.4-2.9-9.9-3
					C398.8,355.3,396.5,354.8,394.1,354.2z"/>
				<path class="st7" d="M404.4,374.3c-0.2-0.1-0.3-0.1-0.4-0.2c-0.2-0.1-0.5-0.2-0.7-0.3l-3.3,0.5c1.2,0.5,2.4,0.9,3.6,1.1
					C403.9,374.9,404.2,374.6,404.4,374.3z"/>
				<path class="st8" d="M408.6,333.9c-0.2-0.5-0.6-0.7-1.1-0.6c-0.8,0.2-1.7,0.5-2.5,0.7c0.8-1.1,1.7-2.2,2.5-3.4
					c0.4-0.5,0.4-1.2-0.1-1.6c-0.4-0.4-1.3-0.4-1.6,0.1c-2.3,3.1-4.6,6.2-6.7,9.5c-0.9-2.4-1.4-5-1.4-7.6c0-1.1-1.7-1-1.7,0.1
					c0,3.2,0.7,6.4,2,9.3c-1.2,2.1-2.4,4.3-3.3,6.6c-0.3,0.9-0.7,1.8-1,2.7l0,0c-0.1-0.1-0.1-0.2-0.2-0.2c0,0,0,0-0.1-0.1
					c0,0,0,0,0-0.1c-0.1-0.2-0.2-0.3-0.4-0.5c-0.5-0.7-0.9-1.4-1.3-2.1c-0.2-0.4-0.8-0.5-1.2-0.3c-0.4,0.3-0.5,0.8-0.3,1.2
					c0.7,1.5,1.7,2.8,2.9,4c-0.5,1.8-1,3.6-1.5,5.5c-0.9,3.3-1.8,6.6-2.9,9.8c-1.3,3.7-2.8,7.4-4.5,10.9c-0.6,1.3,1.4,2.4,2,1.1
					c1.3-2.7,2.5-5.5,3.6-8.4c4.5-2.5,9.1-5,13.6-7.6c1-0.5,0.1-2-0.9-1.5c-3.9,2.2-7.9,4.4-11.8,6.6c1-2.9,1.9-5.8,2.7-8.8
					c0.1-0.2,0.1-0.5,0.2-0.7c1.2-0.6,2.4-1.2,3.6-1.8c0.4-0.2,0.5-0.8,0.3-1.2c-0.3-0.4-0.8-0.5-1.2-0.3c-0.7,0.4-1.4,0.7-2.1,1.1
					c0.6-2.3,1.2-4.6,2-6.8c1.1-3.2,2.7-6.3,4.5-9.2c0.8-1.3,1.7-2.7,2.6-4c1.5-0.4,3.1-0.9,4.6-1.3
					C408.5,334.8,408.8,334.3,408.6,333.9z"/>
			</g>
			<g>
				<path class="st9" d="M385.3,383.8c0,0-6.8-12.4,5.9-20.5l0.3,3.3l2.4-5.4l0.4,3.3l1.1-4.5l7-5.5l0.1,3.5l2.1-5.3
					c0,0,5.2-3.3,11.5-2.9s7.8-3,7.8-3s0.7,6.7-5.6,13.9h-7.6l6.7,2.7l-2.3,4.4l-6.2-1.1l5.4,2.9l-1.1,2l-3.4-1.5l2.6,3.4l-0.3,0.8
					l-1.6-1.2l1,1.7l-1,0.8l-4.1-0.1l2,1.7l-5.5,5.2l-7.8-1l7,2.1C402.1,383.5,394.4,388.7,385.3,383.8z"/>
				<path class="st10" d="M410.1,350.5c0.4,0.1,0.9,0.2,1.3,0.3c3.7,0.8,7.4,2.2,11.2,2.9c1.5-3.9,1.2-6.7,1.2-6.7s-1.4,3.4-7.8,3
					C413.9,349.8,411.9,350.1,410.1,350.5z"/>
				<path class="st10" d="M404.2,356.2c2.9,1.6,5.8,3.2,8.7,4.7h5.2c1.1-1.2,1.9-2.4,2.7-3.6c-2.9-0.6-5.7-1.5-8.5-2.2
					c-2.7-0.6-5.4-1.1-8.1-1.3l-0.8,2C403.7,355.9,404,356,404.2,356.2z"/>
				<path class="st10" d="M393.9,371.2c2.6,2.4,5.4,4.6,7.9,7.1c0.7,0.7,1.7,1.6,2.6,2.7l1.5-1.4c-4.4-5.1-8.4-10.5-13.7-14.7
					l-0.7,1.6l-0.2-2.3c-0.2-0.2-0.5-0.3-0.7-0.5c-0.7,0.5-1.3,1-1.9,1.5C390.1,367.5,392,369.5,393.9,371.2z"/>
				<path class="st10" d="M388.6,374c-1-1.6-2.1-3.3-3.5-4.6c-0.3,0.5-0.5,1.1-0.8,1.6c1.3,3.3,3.7,6.1,6,8.8c1.6,2,3.1,4.1,4.7,6
					c0.4,0,0.7-0.1,1-0.1c-0.5-0.5-0.9-0.9-1.2-1.3C392.4,381.3,390.7,377.4,388.6,374z"/>
				<path class="st10" d="M396.6,378.9c-0.5-0.4-0.9-0.9-1.4-1.3c0.6,1,1.2,2.1,1.9,3.1c0.3,0.4,0.5,0.8,0.8,1.1l1.9,0.2
					C398.8,381,397.7,379.9,396.6,378.9z"/>
				<path class="st10" d="M399.5,361.5c4,2.9,7.9,5.8,11.6,9.1c0.1,0.1,0.2,0.2,0.4,0.3l1.7,0.7l1.1-2l-5.4-2.9l6.2,1.1l0.7-1.2
					c-4.6-2.3-9.1-4.8-13.7-7.3c-1.2-0.7-2.4-1.3-3.6-1.9l-2.2,1.7C397.3,360,398.4,360.7,399.5,361.5z"/>
				<path class="st10" d="M387.2,382.3c-1.3-1.5-2.5-3.1-3.7-4.7c0.3,3.5,1.7,6.1,1.7,6.1c1.5,0.8,3,1.3,4.4,1.7
					C388.8,384.4,388,383.3,387.2,382.3z"/>
				<path class="st10" d="M400.7,367.4c0.4,0.5,0.9,0.9,1.3,1.4c2,2.2,3.8,4.5,5.7,6.8l2.7,0.1l0.1-0.1c-2.7-2.5-5.4-4.8-5.7-5
					C403.5,369.5,402.1,368.4,400.7,367.4z"/>
				<path class="st10" d="M401.5,383.9c-0.1-0.1-0.2-0.2-0.2-0.3c-0.1-0.2-0.3-0.3-0.4-0.5l-2.3-0.7c0.6,0.7,1.3,1.3,2.1,1.9
					C401,384.2,401.3,384,401.5,383.9z"/>
				<path class="st11" d="M417.3,354.6c-0.2-0.4-0.7-0.7-1.1-0.5c-2.5,1.4-5,2.7-7.3,4.3c0.1-1.9,0.6-3.8,1.4-5.5
					c0.3-0.7-0.8-1.2-1.2-0.5c-1,2.2-1.5,4.5-1.5,6.8c-1.5,1-2.9,2.2-4.2,3.4c-0.5,0.5-1,1-1.4,1.5l0,0c0-0.1,0-0.1-0.1-0.2
					c0,0,0,0,0-0.1c0,0,0,0,0-0.1s-0.1-0.3-0.1-0.4c-0.1-0.6-0.2-1.2-0.2-1.8c0-0.3-0.4-0.6-0.7-0.5c-0.4,0.1-0.6,0.4-0.5,0.7
					c0,1.2,0.3,2.4,0.7,3.5c-0.9,1-1.8,2.1-2.7,3.2c-1.6,2-3.2,3.9-4.9,5.7c-2,2.1-4.1,4.1-6.3,5.9c-0.8,0.7,0.2,2,1,1.3
					c1.7-1.4,3.3-2.9,4.9-4.5c3.8-0.3,7.6-0.6,11.4-0.9c0.8-0.1,0.6-1.3-0.2-1.3c-3.3,0.3-6.6,0.5-9.9,0.8c1.6-1.6,3.1-3.3,4.5-5
					c0.1-0.1,0.2-0.3,0.3-0.4c1,0,2-0.1,3-0.1c0.3,0,0.6-0.4,0.5-0.7c-0.1-0.4-0.4-0.6-0.7-0.5c-0.6,0-1.1,0.1-1.7,0.1
					c1.1-1.3,2.2-2.7,3.4-3.9c1.7-1.8,3.7-3.4,5.8-4.8c1-0.6,2-1.3,3-1.8c1.2,0.2,2.3,0.4,3.5,0.5c0.3,0.1,0.7-0.2,0.7-0.6
					s-0.2-0.7-0.6-0.7c-0.6-0.1-1.2-0.2-1.9-0.3c0.9-0.5,1.8-1,2.7-1.5C417.3,355.5,417.5,355,417.3,354.6z"/>
			</g>
		</g>
	</g>
</g>
<g id="Layer_18_1_">
	<g id="Layer_26">
		<g>
			<path class="st9" d="M160.7,356.3c0,0,2.8-11.5-9.2-15.2l0.5,2.7l-3.1-3.9l0.4,2.8l-1.9-3.4l-6.9-2.9l0.7,2.9l-2.8-3.8
				c0,0-4.9-1.5-9.9,0.2s-6.9-0.7-6.9-0.7s0.9,5.6,7.6,10l6.1-1.7l-4.8,3.7l2.8,3l4.8-2.2l-3.7,3.5l1.3,1.4l2.4-1.9l-1.4,3.3
				l0.4,0.5l1.1-1.3l-0.4,1.6l1,0.4l3.3-1l-1.3,1.8l5.6,3l6.1-2.5l-5.2,3.2C147.1,359.8,154.4,362.3,160.7,356.3z"/>
			<path class="st10" d="M133.4,334.9c-0.3,0.2-0.7,0.3-1,0.5c-2.8,1.4-5.5,3.4-8.4,4.8c-2-2.8-2.4-5.1-2.4-5.1s1.9,2.4,6.9,0.7
				C130.2,335.1,131.9,334.9,133.4,334.9z"/>
			<path class="st10" d="M139.4,338.2c-2,1.9-4,3.8-6,5.7l-4.2,1.1c-1.1-0.8-2.1-1.5-2.9-2.3c2.2-1.1,4.3-2.5,6.4-3.7
				c2-1.1,4.1-2.1,6.3-2.9l1.1,1.4C139.8,337.8,139.6,338,139.4,338.2z"/>
			<path class="st10" d="M151,348.1c-1.6,2.5-3.3,4.9-4.8,7.5c-0.4,0.7-1,1.7-1.5,2.7l-1.5-0.8c2.5-5.1,4.5-10.3,7.9-14.8l0.9,1.2
				l-0.3-1.9c0.2-0.2,0.3-0.4,0.5-0.6c0.7,0.2,1.3,0.5,1.9,0.8C153.3,344.2,152.2,346.3,151,348.1z"/>
			<path class="st10" d="M155.9,349.2c0.5-1.5,1-3.1,1.8-4.5c0.4,0.4,0.7,0.8,1,1.2c-0.3,3-1.7,5.7-2.9,8.4c-0.9,1.9-1.6,4-2.5,5.8
				c-0.3,0.1-0.6,0.1-0.9,0.1c0.3-0.5,0.5-0.9,0.7-1.3C154.5,355.9,154.9,352.4,155.9,349.2z"/>
			<path class="st10" d="M150.5,354.9c0.3-0.4,0.6-0.9,0.9-1.3c-0.3,1-0.5,1.9-0.9,2.9c-0.1,0.4-0.3,0.7-0.4,1.1l-1.5,0.6
				C149.2,357,149.8,355.9,150.5,354.9z"/>
			<path class="st10" d="M144.4,341.5c-2.6,3.2-5.1,6.5-7.4,9.9c-0.1,0.1-0.1,0.2-0.2,0.3l-1.2,0.9l-1.3-1.4l3.7-3.5l-4.8,2.2
				l-0.8-0.8c3.2-2.9,6.3-5.9,9.5-8.9c0.8-0.8,1.7-1.5,2.5-2.3l2.1,0.9C145.8,339.8,145.1,340.6,144.4,341.5z"/>
			<path class="st10" d="M158.9,355.6c0.7-1.5,1.4-3,1.9-4.6c0.5,2.9-0.1,5.3-0.1,5.3c-1,1-2.1,1.7-3.2,2.3
				C158,357.6,158.4,356.6,158.9,355.6z"/>
			<path class="st10" d="M144.7,346.5c-0.3,0.5-0.5,0.9-0.7,1.4c-1.1,2.2-2.1,4.5-3.1,6.7l-2.1,0.6h-0.1c1.7-2.6,3.3-5,3.5-5.3
				C142.9,348.8,143.8,347.6,144.7,346.5z"/>
			<path class="st10" d="M147.7,360c0-0.1,0.1-0.2,0.1-0.3c0.1-0.2,0.1-0.3,0.2-0.5l1.7-1.1c-0.4,0.7-0.8,1.3-1.3,2
				C148.1,360.1,147.9,360,147.7,360z"/>
			<path class="st11" d="M128.5,339.7c0-0.3,0.4-0.7,0.8-0.6c2.3,0.6,4.6,1.1,6.9,1.8c-0.5-1.5-1.3-2.9-2.3-4.1
				c-0.4-0.5,0.4-1.2,0.8-0.6c1.3,1.5,2.2,3.3,2.7,5.2c1.4,0.5,2.8,1.1,4.2,1.8c0.5,0.3,1,0.6,1.5,0.9l0,0c0-0.1,0-0.1,0-0.2
				c0,0,0,0,0-0.1l0,0c0-0.1,0-0.2,0-0.4c0-0.5-0.1-1-0.2-1.5c-0.1-0.3,0.2-0.6,0.5-0.6s0.5,0.2,0.6,0.5c0.2,1,0.3,2,0.2,3
				c1,0.6,1.9,1.3,2.8,2c1.7,1.2,3.4,2.4,5.2,3.5c2.1,1.3,4.2,2.4,6.4,3.4c0.8,0.4,0.3,1.7-0.5,1.3c-1.7-0.8-3.3-1.6-4.9-2.6
				c-3.1,0.6-6.3,1.2-9.4,1.8c-0.7,0.1-0.8-0.9-0.1-1.1c2.7-0.5,5.4-1,8.2-1.5c-1.6-1-3.2-2-4.7-3.1c-0.1-0.1-0.3-0.2-0.4-0.3
				c-0.8,0.2-1.6,0.4-2.4,0.5c-0.3,0.1-0.6-0.2-0.6-0.5s0.2-0.5,0.5-0.6c0.5-0.1,0.9-0.2,1.4-0.3c-1.2-0.9-2.4-1.7-3.6-2.4
				c-1.8-1.1-3.8-1.9-5.7-2.6c-0.9-0.3-1.9-0.6-2.8-0.8c-0.9,0.4-1.8,0.8-2.7,1.2c-0.3,0.1-0.6,0-0.7-0.3c-0.1-0.3,0-0.6,0.3-0.7
				c0.5-0.2,1-0.4,1.4-0.6c-0.8-0.2-1.7-0.4-2.5-0.6C128.7,340.5,128.4,340.2,128.5,339.7z"/>
		</g>
	</g>
</g>
<g id="Layer_17_1_">
	<g id="Layer_25">
		<g>
			<path class="st12" d="M283.4,406.4H240c0,0,2.3-6.4,7.1-7.3c4.9-0.9,4.8,3.4,4.8,3.4s9.2-14.1,14.1-14.4
				c4.8-0.2-0.4,14.4-0.4,14.4s5.2-7.9,7.8-6.6c2.5,1.3,1.3,7.7,1.3,7.7s6.4-7.9,7.8-5.4C283.8,400.7,283.4,406.4,283.4,406.4z"/>
			<path class="st5" d="M280.9,307.5h-33.3c0,0,1.7-4.9,5.5-5.6c3.7-0.7,3.7,2.6,3.7,2.6s7.1-10.8,10.8-11c3.7-0.2-0.3,11-0.3,11
				s4-6.1,6-5.1c1.9,1,1,5.9,1,5.9s4.9-6.1,6-4.1C281.2,303.1,280.9,307.5,280.9,307.5z"/>
			<path class="st5" d="M259.2,408.3h-49.7c0,0,2.6-7.3,8.1-8.3c5.6-1,5.5,3.9,5.5,3.9s10.6-16.2,16.1-16.4
				c5.5-0.3-0.5,16.4-0.5,16.4s6-9,8.9-7.6s1.4,8.8,1.4,8.8s7.3-9,8.9-6.2C259.7,401.8,259.2,408.3,259.2,408.3z"/>
			<path class="st5" d="M187.8,420.7h-38.1c0,0,2-5.6,6.2-6.4c4.3-0.8,4.3,3,4.3,3s8.1-12.4,12.3-12.6s-0.4,12.6-0.4,12.6
				s4.6-6.9,6.8-5.8s1.1,6.7,1.1,6.7s5.6-6.9,6.8-4.7C188.1,415.7,187.8,420.7,187.8,420.7z"/>
			<path class="st13" d="M194.6,397.3c0,2.9-4.9,5.3-10.9,5.3s-10.9-2.4-10.9-5.3s4.9-5.3,10.9-5.3S194.6,394.4,194.6,397.3z"/>
			<g>
				<g>
					<path class="st5" d="M175.4,378.7c0,0-0.7-22.3-24.4-23l2.3,4.7l-7.6-5.5l2.1,4.8l-5.2-5.2l-13.9-1.8l2.7,4.9l-7.1-5.4
						c0,0-9.6-0.3-17.9,5.4c-8.3,5.7-12.9,2.2-12.9,2.2s4.5,9.7,18.8,14.4l10.3-6.1l-7,9.1l6.7,4l7.5-6.5l-5,8.2l3.1,1.8l3.4-4.7
						l-0.9,6.7l1,0.8l1.3-2.9v3.1l2,0.3l5.4-3.4l-1.4,3.9l11.6,2.6l9.8-7.6l-7.9,8.5C152.4,391.9,166.9,392.8,175.4,378.7z"/>
					<path class="st7" d="M115,353.5c-0.5,0.5-1,0.9-1.6,1.4c-4.4,4-8.3,8.9-12.9,12.9c-5.1-4.1-7-8.1-7-8.1s4.7,3.4,12.9-2.2
						C109.2,355.5,112.2,354.3,115,353.5z"/>
					<path class="st7" d="M127.5,356.5c-2.7,4.5-5.3,9-8.1,13.4l-7.1,4.2c-2.4-0.8-4.6-1.7-6.5-2.8c3.4-3.2,6.5-6.7,9.8-9.9
						c3.2-3,6.5-5.8,10-8.4l2.7,2.1C128,355.6,127.7,356,127.5,356.5z"/>
					<path class="st7" d="M153.6,368.7c-1.7,5.3-3.6,10.5-5,16c-0.4,1.6-1,3.6-1.4,5.7l-3.2-0.7c1.9-10.4,2.9-21,6.8-30.9l2.3,1.7
						l-1.6-3.3c0.2-0.4,0.4-0.9,0.6-1.3c1.3,0.1,2.6,0.2,3.8,0.5C155.8,360.4,154.8,364.7,153.6,368.7z"/>
					<path class="st7" d="M163,368.2c0.1-3,0.2-6.1,1.1-9c0.8,0.5,1.6,1,2.3,1.6c0.9,5.5-0.2,11.2-1.1,16.7c-0.6,4-0.9,8-1.6,11.9
						c-0.5,0.2-1,0.5-1.5,0.7c0.3-1.1,0.5-2,0.6-2.7C163.8,381,162.9,374.5,163,368.2z"/>
					<path class="st7" d="M156.1,381.2c0.3-1,0.6-1.9,0.9-2.9c0,1.9,0,3.8-0.1,5.7c-0.1,0.7-0.1,1.5-0.2,2.2l-2.4,1.8
						C154.7,385.8,155.4,383.5,156.1,381.2z"/>
					<path class="st7" d="M138.3,359.9c-3.1,7.1-6.1,14.3-8.4,21.7c-0.1,0.2-0.2,0.5-0.2,0.7l-1.7,2.3l-3.1-1.8l5-8.2l-7.5,6.5
						l-1.9-1.1c4.4-6.8,8.5-13.8,12.7-20.8c1.1-1.8,2.3-3.7,3.4-5.5l4.3,0.6C140,356.1,139.1,358,138.3,359.9z"/>
					<path class="st7" d="M171.6,378.3c0.5-3.1,1-6.2,1.2-9.3c2.4,5.1,2.5,9.7,2.5,9.7c-1.4,2.3-3,4.2-4.6,5.8
						C171.1,382.4,171.3,380.3,171.6,378.3z"/>
					<path class="st7" d="M141.3,368.9c-0.2,1-0.4,2-0.6,2.9c-0.9,4.6-1.6,9.2-2.3,13.8l-3.6,2.2h-0.2c1.7-5.6,3.5-10.8,3.7-11.3
						C139.2,374,140.2,371.4,141.3,368.9z"/>
					<path class="st7" d="M153.5,391.9c0-0.2,0.1-0.4,0.1-0.6c0.1-0.3,0.1-0.6,0.2-0.9l2.6-2.8c-0.3,1.4-0.7,2.8-1.3,4.2
						C154.4,391.9,153.9,391.9,153.5,391.9z"/>
					<path class="st8" d="M112.3,369.1c-0.3-0.5-0.3-1,0.2-1.4c0.8-0.6,1.5-1.3,2.3-1.9c-1.6,0-3.2,0.1-4.8,0.1
						c-0.7,0-1.4-0.4-1.5-1.1s0.4-1.5,1.1-1.5c4.5-0.2,9-0.3,13.4-0.1c-1.7-2.5-3.8-4.6-6.3-6.4c-1.1-0.7,0.2-2.3,1.2-1.6
						c3.1,2.1,5.6,4.9,7.5,8.1c2.8,0.2,5.7,0.6,8.4,1.2c1.1,0.2,2.1,0.5,3.2,0.9c0,0,0,0,0-0.1s-0.1-0.2-0.1-0.4v-0.1c0,0,0,0,0-0.1
						c-0.1-0.2-0.1-0.4-0.2-0.7c-0.3-0.9-0.7-1.8-1.2-2.6c-0.3-0.5,0.1-1.1,0.5-1.3c0.5-0.2,1,0,1.3,0.5c0.9,1.7,1.5,3.5,1.8,5.4
						c2.1,0.7,4.1,1.5,6.2,2.2c3.7,1.4,7.5,2.7,11.3,3.7c4.4,1.2,8.8,2.2,13.3,3c1.7,0.3,1.4,2.9-0.3,2.6c-3.5-0.6-6.9-1.3-10.3-2.2
						c-5.4,2.6-10.8,5.3-16.2,7.9c-1.2,0.6-1.9-1.3-0.8-1.8c4.7-2.3,9.3-4.6,14-6.8c-3.4-0.9-6.8-2-10.1-3.2
						c-0.3-0.1-0.5-0.2-0.8-0.3c-1.4,0.7-2.7,1.5-4.1,2.2c-0.5,0.2-1.1-0.1-1.3-0.5c-0.2-0.5,0-1,0.5-1.3c0.8-0.4,1.6-0.8,2.4-1.3
						c-2.6-1-5.1-1.9-7.8-2.6c-3.8-1.1-7.8-1.6-11.7-1.8c-1.8-0.1-3.7-0.1-5.5-0.1c-1.4,1.2-2.8,2.3-4.3,3.5
						C113.3,369.6,112.6,369.5,112.3,369.1z"/>
				</g>
				<g>
					<path class="st9" d="M175.2,380c0,0-7.3-14.7-23.3-7.9l2.9,2.4l-6.7-1.4l2.9,2.6l-5-1.9l-9.8,3l3.3,2.4l-6.4-1.5
						c0,0-6.5,2.7-10.3,9s-8,5.4-8,5.4s6,5.1,16.9,3.9l5-7.2l-1.9,8.2l5.7,0.7l3.1-6.6l-0.8,7l2.6,0.3l0.8-4.2l1.5,4.8l0.9,0.2v-2.3
						l0.9,2.1l1.4-0.4l2.6-3.9l0.3,3.1l8.6-1.8l4.2-8.1l-2.7,8.1C163.8,395.8,173.8,392,175.2,380z"/>
					<path class="st10" d="M127.1,381.6c-0.2,0.5-0.4,0.9-0.6,1.4c-1.7,4-2.8,8.5-4.7,12.5c-4.7-1.2-7.2-3.3-7.2-3.3s4.2,0.9,8-5.4
						C123.9,384.7,125.6,382.9,127.1,381.6z"/>
					<path class="st10" d="M136.4,379.7c-0.4,3.8-0.8,7.6-1.3,11.4l-3.5,5c-1.9,0.2-3.6,0.2-5.2,0.1c1.3-3.1,2.3-6.4,3.6-9.6
						c1.2-3,2.5-5.9,4.1-8.6l2.4,0.6C136.5,379,136.4,379.4,136.4,379.7z"/>
					<path class="st10" d="M157.5,379.9c0.5,4.1,0.8,8.1,1.5,12.2c0.2,1.2,0.4,2.7,0.8,4.2l-2.3,0.5c-1.9-7.6-4.4-14.9-4.8-22.7
						l2,0.4l-2.1-1.7c0-0.3,0-0.7,0-1c0.9-0.3,1.8-0.6,2.7-0.8C156.5,373.8,157.2,376.9,157.5,379.9z"/>
					<path class="st10" d="M163.7,376.7c-0.9-2-1.7-4.1-2-6.3c0.7,0.1,1.4,0.2,2,0.4c2.3,3.4,3.3,7.6,4.4,11.5
						c0.8,2.8,1.8,5.6,2.5,8.4c-0.3,0.3-0.5,0.6-0.8,0.9c-0.1-0.8-0.3-1.5-0.4-2C168.1,385.1,165.6,381,163.7,376.7z"/>
					<path class="st10" d="M163,387.6c-0.1-0.7-0.2-1.5-0.3-2.2c0.6,1.3,1.2,2.5,1.6,3.8c0.2,0.5,0.4,1,0.5,1.5l-1,2
						C163.5,391,163.3,389.3,163,387.6z"/>
					<path class="st10" d="M144.7,378.8c0.1,5.7,0.3,11.4,1,17c0,0.2,0,0.4,0.1,0.5l-0.4,2l-2.6-0.3l0.8-7l-3.1,6.6l-1.6-0.2
						c0.9-5.9,1.5-11.8,2.1-17.8c0.2-1.6,0.4-3.1,0.6-4.7l3-0.9C144.7,375.7,144.6,377.2,144.7,378.8z"/>
					<path class="st10" d="M172.5,380.9c-0.6-2.2-1.2-4.4-2-6.6c3.1,2.7,4.6,5.7,4.6,5.7c-0.2,2-0.7,3.7-1.3,5.3
						C173.4,383.8,172.9,382.3,172.5,380.9z"/>
					<path class="st10" d="M149.4,383.8c0.1,0.7,0.3,1.4,0.5,2.2c0.8,3.4,1.8,6.6,2.7,9.9l-1.7,2.6h-0.1c-0.6-4.3-0.9-8.3-1-8.7
						C149.6,387.8,149.5,385.8,149.4,383.8z"/>
					<path class="st10" d="M164.6,395.5c0-0.1-0.1-0.3-0.1-0.4c-0.1-0.2-0.1-0.5-0.2-0.7l0.9-2.7c0.2,1.1,0.4,2.1,0.4,3.2
						C165.2,395.2,164.8,395.4,164.6,395.5z"/>
					<path class="st11" d="M126.3,391.1c-0.3-0.4-0.2-1.1,0.3-1.4c2.9-1.5,5.9-2.9,8.9-4.1c-1.9-1.1-4-1.9-6.1-2.3
						c-0.9-0.2-0.6-1.6,0.3-1.4c2.7,0.5,5.2,1.6,7.5,3.1c2-0.7,4-1.3,6-1.7c0.8-0.2,1.6-0.3,2.4-0.4l0,0c-0.1-0.1-0.1-0.1-0.2-0.2
						c0,0,0,0-0.1-0.1l0,0c-0.1-0.1-0.2-0.3-0.3-0.4c-0.5-0.5-1-1-1.6-1.4c-0.3-0.2-0.3-0.8,0-1c0.3-0.3,0.7-0.3,1,0
						c1.1,0.8,2.1,1.9,2.9,3c1.6-0.2,3.2-0.3,4.8-0.4c2.9-0.2,5.8-0.5,8.7-0.9c3.3-0.5,6.6-1.2,9.8-2.1c1.2-0.3,1.8,1.5,0.6,1.9
						c-2.5,0.7-5,1.2-7.5,1.7c-2.8,3.4-5.6,6.8-8.4,10.2c-0.6,0.7-1.7-0.3-1.1-1c2.4-3,4.9-5.9,7.3-8.9c-2.6,0.4-5.2,0.7-7.8,0.9
						c-0.2,0-0.4,0-0.6,0c-0.7,0.9-1.4,1.8-2.1,2.7c-0.2,0.3-0.8,0.3-1,0c-0.3-0.3-0.3-0.7,0-1c0.4-0.5,0.8-1.1,1.2-1.6
						c-2,0.1-4,0.3-6,0.6c-2.9,0.4-5.7,1.3-8.4,2.4c-1.3,0.5-2.5,1-3.7,1.6c-0.6,1.2-1.2,2.4-1.8,3.6c-0.2,0.3-0.7,0.5-1,0.3
						c-0.4-0.2-0.5-0.6-0.3-1c0.3-0.7,0.6-1.3,1-2c-1.1,0.5-2.1,1-3.2,1.6C127.1,391.6,126.6,391.6,126.3,391.1z"/>
				</g>
			</g>
			<g>
				<path class="st14" d="M178.6,391.1L83.2,215.2c-3.3-6-3.5-14.9-0.5-19.9l46.9-77.2c0.7-1.2,1.6-2.1,2.6-2.6
					c0.4-0.2,0.9-0.4,1.4-0.5l0,0l-3.6,0.1l0,0c-1.7,0-3.4,1.1-4.7,3.2l-46.9,77.2c-3,4.9-2.8,13.8,0.5,19.9l95.4,175.9
					c1.9,3.6,4.5,5.3,6.9,5.2l0,0l4.1-0.2l0,0C182.9,396.3,180.5,394.5,178.6,391.1z"/>
				<g>
					<g>
						<path class="st4" d="M178.7,391.1L83.3,215.2c-3.3-6-3.5-14.9-0.5-19.9l46.9-77.2c0.7-1.2,1.6-2.1,2.6-2.6
							c1-0.6,2.2-0.7,3.3-0.4c-1.2-0.4-2.5-0.3-3.6,0.3c-0.9,0.5-1.8,1.4-2.6,2.6l-46.9,77.2c-3,4.9-2.8,13.8,0.5,19.9L178.4,391
							c1.6,2.9,3.5,4.6,5.5,5C182,395.4,180.2,393.8,178.7,391.1z"/>
					</g>
					<g>
						<path class="st15" d="M133.8,114.9c-0.1,0-0.1,0-0.2,0C133.6,115,133.7,115,133.8,114.9z"/>
						<path class="st15" d="M133.1,115.1c-0.1,0-0.1,0-0.2,0.1C132.9,115.1,133,115.1,133.1,115.1z"/>
						<path class="st15" d="M134.4,114.9L134.4,114.9L134.4,114.9z"/>
						<path class="st15" d="M179.9,392.9c0.1,0.1,0.1,0.2,0.2,0.2C180,393.1,180,393,179.9,392.9z"/>
						<path class="st15" d="M181.4,394.5c0.1,0.1,0.1,0.1,0.2,0.2C181.5,394.6,181.5,394.6,181.4,394.5z"/>
						<path class="st15" d="M183.7,395.9c0.1,0,0.1,0,0.2,0.1C183.8,396,183.7,396,183.7,395.9z"/>
						<path class="st15" d="M179.3,392c0.1,0.1,0.1,0.2,0.2,0.3C179.4,392.2,179.4,392.1,179.3,392z"/>
						<path class="st15" d="M135.8,115.1"/>
						<path class="st15" d="M135.3,115c-0.1,0-0.1,0-0.2,0C135.2,115,135.3,115,135.3,115z"/>
						<path class="st15" d="M131.5,115.9l-0.1,0.1L131.5,115.9z"/>
						<path class="st15" d="M132.2,115.5c-0.1,0.1-0.2,0.1-0.3,0.2C132,115.6,132.1,115.5,132.2,115.5z"/>
						<path class="st15" d="M182.1,395.1c0.1,0,0.1,0.1,0.2,0.1C182.2,395.2,182.2,395.1,182.1,395.1z"/>
					</g>
					<g>
						<path class="st16" d="M132.2,115.5c-0.9,0.5-1.8,1.4-2.6,2.6l-46.9,77.2c-3,4.9-2.8,13.8,0.5,19.9l95.4,175.9
							c2.5,4.5,5.9,6.2,8.8,4.6c0.9-0.5,1.8-1.4,2.6-2.6l46.9-77.2c3.9-6.5,2.9-11-0.8-18.5L141,120.1
							C138.5,115.5,135.1,113.9,132.2,115.5L132.2,115.5z"/>
					</g>
					<polygon class="st17" points="90.5,213.1 184.6,386.6 234.4,304.5 140.3,131.1 					"/>
					<path class="st18" d="M140.7,119.5c-2.5-4.5-5.7-5.8-8.3-3.7c-0.9,0.7-1.6,1.8-2.3,3.2l-11.7,20.1
						c-5.6,26.9-11.9,67.2-19.8,104.6l46.7,86.1l30.4-145L140.7,119.5z M191.6,214.4l-30.4,144.7l8.8,16.2l30.3-144.6L191.6,214.4z
						 M208.7,246.1l-30.3,144.5l2,3.8L210.7,250L208.7,246.1z"/>
					
						<linearGradient id="SVGID_1_" gradientUnits="userSpaceOnUse" x1="56.8276" y1="124.7603" x2="56.8276" y2="173.9097" gradientTransform="matrix(0.8824 -0.4705 -0.4705 -0.8824 135.5856 330.7009)">
						<stop  offset="0" style="stop-color:#00FFBA"/>
						<stop  offset="0.1301" style="stop-color:#00D1A4"/>
						<stop  offset="0.2841" style="stop-color:#00A18D"/>
						<stop  offset="0.4378" style="stop-color:#00797A"/>
						<stop  offset="0.588" style="stop-color:#005A6B"/>
						<stop  offset="0.7339" style="stop-color:#004461"/>
						<stop  offset="0.8735" style="stop-color:#00375A"/>
						<stop  offset="1" style="stop-color:#003258"/>
					</linearGradient>
					<polygon class="st19" points="140.4,131.2 140.3,131.1 90.5,213.1 90.6,213.3 					"/>
					<g>
						<path class="st16" d="M111,166.6c1.2,2.2,1.3,5.3,0.2,7.1c-1.1,1.8-2.9,1.4-4.1-0.7c-1.2-2.2-1.3-5.3-0.2-7.1
							C108,164.2,109.8,164.5,111,166.6z"/>
					</g>
					<g>
						<path class="st20" d="M110.7,167.2c1,1.8,1,4.4,0.2,5.9c-0.9,1.5-2.4,1.2-3.4-0.6s-1-4.4-0.2-5.9
							C108.2,165.1,109.7,165.4,110.7,167.2z"/>
					</g>
					<g>
						<path class="st21" d="M110.4,167.7c0.8,1.4,0.8,3.5,0.1,4.7c-0.7,1.2-1.9,1-2.7-0.5c-0.8-1.4-0.8-3.5-0.1-4.7
							C108.4,166.1,109.6,166.3,110.4,167.7z"/>
					</g>
					<g>
						<path class="st22" d="M110,168.3c0.6,1,0.6,2.5,0.1,3.4c-0.5,0.8-1.4,0.7-1.9-0.3c-0.6-1-0.6-2.5-0.1-3.4
							S109.4,167.3,110,168.3z"/>
					</g>
					<g>
						<path class="st23" d="M109.7,168.9c0.3,0.6,0.4,1.6,0.1,2.1s-0.8,0.4-1.2-0.2c-0.3-0.6-0.4-1.6-0.1-2.1
							S109.3,168.3,109.7,168.9z"/>
					</g>
					<g class="st24">
						<path class="st15" d="M109.6,166.7c0.3,0.6,0.4,1.6,0.1,2.1s-0.9,0.4-1.2-0.2c-0.3-0.6-0.4-1.6-0.1-2.1
							C108.7,166,109.2,166.1,109.6,166.7z"/>
					</g>
					<g class="st24">
						<path class="st15" d="M109.8,168.5c0.2,0.4,0.3,1.1,0,1.4c-0.2,0.4-0.6,0.3-0.8-0.1c-0.2-0.4-0.3-1.1,0-1.4
							C109.2,168,109.6,168.1,109.8,168.5z"/>
					</g>
					<g>
						<path class="st16" d="M112.3,160.9c0.4,0.7,0.4,1.6,0.1,2.2c-0.3,0.5-0.9,0.4-1.2-0.2c-0.4-0.7-0.4-1.6-0.1-2.2
							C111.3,160.2,111.9,160.3,112.3,160.9z"/>
					</g>
					<g>
						<path class="st20" d="M112.2,161.1c0.3,0.5,0.3,1.4,0,1.8c-0.3,0.4-0.7,0.4-1-0.2c-0.3-0.5-0.3-1.4,0-1.8
							C111.4,160.5,111.9,160.6,112.2,161.1z"/>
					</g>
					<g>
						<path class="st21" d="M112,161.3c0.2,0.4,0.3,1.1,0,1.4c-0.2,0.4-0.6,0.3-0.8-0.1c-0.2-0.4-0.3-1.1,0-1.4
							C111.4,160.8,111.8,160.8,112,161.3z"/>
					</g>
					<g>
						<path class="st22" d="M111.9,161.4c0.2,0.3,0.2,0.8,0,1c-0.2,0.3-0.4,0.2-0.6-0.1s-0.2-0.8,0-1
							C111.5,161.1,111.8,161.1,111.9,161.4z"/>
					</g>
					<g>
						<path class="st23" d="M111.8,161.6c0.1,0.2,0.1,0.5,0,0.6c-0.1,0.2-0.3,0.1-0.4-0.1c-0.1-0.2-0.1-0.5,0-0.6
							C111.6,161.4,111.7,161.4,111.8,161.6z"/>
					</g>
					<g class="st24">
						<path class="st15" d="M111.8,161c0.1,0.2,0.1,0.5,0,0.6c-0.1,0.2-0.3,0.1-0.4-0.1c-0.1-0.2-0.1-0.5,0-0.6
							C111.5,160.7,111.7,160.8,111.8,161z"/>
					</g>
					<g class="st24">
						<path class="st15" d="M111.9,161.5c0.1,0.1,0.1,0.3,0,0.4c-0.1,0.1-0.2,0.1-0.2,0c-0.1-0.1-0.1-0.3,0-0.4
							C111.7,161.4,111.8,161.4,111.9,161.5z"/>
					</g>
					<g>
						<path class="st16" d="M114.7,156.9c0.4,0.7,0.4,1.6,0.1,2.2c-0.3,0.5-0.9,0.4-1.2-0.2c-0.4-0.7-0.4-1.6-0.1-2.2
							S114.3,156.2,114.7,156.9z"/>
					</g>
					<g>
						<path class="st20" d="M114.6,157c0.3,0.5,0.3,1.4,0,1.8c-0.3,0.4-0.7,0.4-1-0.2c-0.3-0.5-0.3-1.4,0-1.8
							C113.8,156.4,114.3,156.5,114.6,157z"/>
					</g>
					<g>
						<path class="st21" d="M114.5,157.2c0.2,0.4,0.3,1.1,0,1.4c-0.2,0.4-0.6,0.3-0.8-0.1c-0.2-0.4-0.3-1.1,0-1.4
							C113.9,156.7,114.2,156.8,114.5,157.2z"/>
					</g>
					<g>
						<path class="st22" d="M114.4,157.4c0.2,0.3,0.2,0.8,0,1c-0.2,0.3-0.4,0.2-0.6-0.1s-0.2-0.8,0-1
							C113.9,157,114.2,157.1,114.4,157.4z"/>
					</g>
					<g>
						<path class="st23" d="M114.2,157.6c0.1,0.2,0.1,0.5,0,0.6c-0.1,0.2-0.3,0.1-0.4-0.1c-0.1-0.2-0.1-0.5,0-0.6
							C114,157.3,114.1,157.4,114.2,157.6z"/>
					</g>
					<g class="st24">
						<path class="st15" d="M114.2,156.9c0.1,0.2,0.1,0.5,0,0.6c-0.1,0.2-0.3,0.1-0.4-0.1c-0.1-0.2-0.1-0.5,0-0.6
							C114,156.7,114.1,156.7,114.2,156.9z"/>
					</g>
					<g class="st24">
						<path class="st15" d="M114.3,157.4c0.1,0.1,0.1,0.3,0,0.4c-0.1,0.1-0.2,0.1-0.2,0s-0.1-0.3,0-0.4
							C114.1,157.3,114.2,157.3,114.3,157.4z"/>
					</g>
					<g class="st24">
						<path class="st15" d="M113.8,167.5c0.2,0.4,0.3,1.1,0,1.4c-0.2,0.4-0.6,0.3-0.8-0.1c-0.2-0.4-0.3-1.1,0-1.4
							C113.2,167,113.6,167,113.8,167.5z"/>
					</g>
				</g>
			</g>
		</g>
	</g>
</g>
<g id="Layer_16_1_">
	<g id="Layer_24">
		<path class="st25" d="M213.9,214.8c0-3.7-3-6.6-6.6-6.6c-2.2,0-4.2,1.1-5.4,2.8c-1.2-1.7-3.2-2.8-5.4-2.8c-3.7,0-6.6,3-6.6,6.6
			c0,2.2,1,4.1,2.6,5.3l0,0l9.4,6.8l9.4-6.8l0,0C212.9,218.8,213.9,216.9,213.9,214.8z"/>
	</g>
</g>
<g id="Layer_15_1_">
	<g id="Layer_23">
		<path class="st26" d="M203.9,238.4c0-2.1-1.7-3.9-3.9-3.9c-1.3,0-2.4,0.6-3.1,1.6c-0.7-1-1.8-1.6-3.1-1.6c-2.1,0-3.9,1.7-3.9,3.9
			c0,1.3,0.6,2.4,1.5,3.1l0,0l5.5,4l5.5-4l0,0C203.3,240.7,203.9,239.6,203.9,238.4z"/>
	</g>
</g>
<g id="Layer_14_1_">
	<g id="Layer_22">
		<path class="st26" d="M216.8,311.1c0-5-4.1-9-9-9c-3,0-5.7,1.5-7.3,3.8c-1.6-2.3-4.3-3.8-7.3-3.8c-5,0-9,4.1-9,9
			c0,2.9,1.4,5.6,3.6,7.2l0,0l12.8,9.3l12.8-9.3l0,0C215.3,316.6,216.8,314,216.8,311.1z"/>
	</g>
</g>
<g id="Layer_13_1_">
	<g id="Layer_21">
		<path class="st27" d="M309.9,328.1c0,1.6-2.4,2.9-5.4,2.9s-5.4-1.3-5.4-2.9s2.4-2.9,5.4-2.9S309.9,326.5,309.9,328.1z"/>
	</g>
</g>
<g id="Layer_12_1_">
	<g id="Layer_20">
		<path class="st28" d="M333.9,298.4c0-9-7.3-16.3-16.3-16.3c-5.4,0-10.2,2.7-13.2,6.8c-3-4.1-7.8-6.8-13.2-6.8
			c-9,0-16.3,7.3-16.3,16.3c0,5.3,2.5,10,6.5,13l0,0l23,16.7l23-16.7l0,0C331.4,308.4,333.9,303.7,333.9,298.4z"/>
	</g>
</g>
<g id="Layer_11_1_">
	<g id="Layer_19">
		<g>
			<rect x="209.3" y="226.9" class="st4" width="5.3" height="7.9"/>
			<path class="st4" d="M226,225.6h-1.4h-1.1h-2.7c0,0,0.7-1.5,0.2-4c-0.1-0.6-0.5-1-0.9-1.2c-0.6-0.3-1.4,0.1-1.5,0.8
				c0,0,0.2,0.7-0.5,3.2c-0.8,3-3.2,3.3-3.2,3.3v5.3c0.5,0.2,1,0.4,1.3,0.6c0.3,0.2,0.6,0.3,1,0.3h5h1.1h1.4c0.5,0,1.1-0.4,1.1-0.9
				l0,0c0-0.4-0.2-0.7-0.4-0.8c0-0.1,0-0.2,0-0.2v0.2c0.4-0.1,0.7-0.6,0.7-1.3l0,0c0-0.6-0.3-1-0.7-1.1l0,0h0.2
				c0.5,0,0.9-0.6,0.9-1.1l0,0c0-0.5-0.4-1-0.9-1h0.3c0.5,0,0.9-0.6,0.9-1.1l0,0C226.9,226.1,226.5,225.6,226,225.6z"/>
		</g>
	</g>
</g>
<g id="Layer_10_1_">
	<g id="Layer_18">
		<g>
			<rect x="167" y="287.7" class="st4" width="5.3" height="7.9"/>
			<path class="st4" d="M183.7,286.4h-1.4h-1.1h-2.7c0,0,0.7-1.5,0.2-4c-0.1-0.6-0.5-1-0.9-1.2c-0.6-0.3-1.4,0.1-1.5,0.8
				c0,0,0.2,0.7-0.5,3.2c-0.8,3-3.2,3.3-3.2,3.3v5.3c0.5,0.2,1,0.4,1.3,0.6s0.6,0.3,1,0.3h5h1.1h1.4c0.5,0,1.1-0.4,1.1-0.9l0,0
				c0-0.4-0.2-0.7-0.4-0.8c0-0.1,0-0.2,0-0.2v0.2c0.4-0.1,0.7-0.6,0.7-1.3l0,0c0-0.6-0.3-1-0.7-1.1l0,0h0.2c0.5,0,0.9-0.6,0.9-1.1
				l0,0c0-0.5-0.4-1-0.9-1h0.3c0.5,0,0.9-0.6,0.9-1.1l0,0C184.6,286.9,184.2,286.4,183.7,286.4z"/>
		</g>
	</g>
</g>
<g id="Layer_9_1_">
	<g id="Layer_17">
		<g>
			<g>
				<g>
					<g>
						<polygon class="st29" points="190.6,254.7 190.6,281.7 213.3,295.2 213.3,267.9 						"/>
						<polygon class="st26" points="190.6,254.7 215.3,239.9 237.9,253.3 213.3,267.9 						"/>
						<polygon class="st30" points="213.3,295.2 237.9,281.1 237.9,253.3 237.9,253.3 213.3,267.9 						"/>
					</g>
				</g>
			</g>
			<path class="st4" d="M195.9,268.9c-1.2-0.7-2.2-0.1-2.2,1.3s1,3.1,2.2,3.8c1.2,0.7,2.2,0.1,2.2-1.3
				C198.1,271.3,197.1,269.6,195.9,268.9z M201.9,272.4c-1.2-0.7-2.2-0.1-2.2,1.3s1,3.1,2.2,3.8c1.2,0.7,2.2,0.1,2.2-1.3
				C204.1,274.8,203.1,273.1,201.9,272.4z M208,275.9c-1.2-0.7-2.2-0.1-2.2,1.3s1,3.1,2.2,3.8c1.2,0.7,2.2,0.1,2.2-1.3
				S209.2,276.5,208,275.9z"/>
			<path class="st4" d="M230.2,272.7c0,1.4,1,2,2.2,1.3s2.2-2.4,2.2-3.8s-1-2-2.2-1.3C231.2,269.6,230.2,271.3,230.2,272.7z
				 M224.1,276.2c0,1.4,1,2,2.2,1.3s2.2-2.4,2.2-3.8s-1-2-2.2-1.3C225.1,273.1,224.1,274.8,224.1,276.2z M218.1,279.7
				c0,1.4,1,2,2.2,1.3s2.2-2.4,2.2-3.8s-1-2-2.2-1.3C219.1,276.5,218.1,278.3,218.1,279.7z"/>
			<g>
				<g>
					<g>
						<g>
							<polygon class="st31" points="231.6,231.9 231.6,258.9 254.3,272.4 254.3,245 							"/>
							<polygon class="st25" points="231.6,231.9 256.3,217.1 278.9,230.5 254.3,245 							"/>
							<polygon class="st32" points="254.3,272.4 278.9,258.3 278.9,230.5 278.9,230.5 254.3,245 							"/>
						</g>
					</g>
				</g>
				<g>
					<polygon class="st4" points="264.1,262.3 259.7,264.7 259.7,254.6 264.1,252.2 					"/>
					<path class="st4" d="M273.6,245.4l-1.2,0.6l-0.9,0.5l-2.2,1.2c0,0,0.6-2.2,0.2-5.2c-0.1-0.8-0.4-1.1-0.8-1.1
						c-0.5-0.1-1.2,0.8-1.2,1.7c0,0,0.1,0.8-0.4,4.3c-0.6,4.2-2.6,5.7-2.6,5.7v6.8c0.4,0,0.8,0.1,1.1,0.2c0.2,0.1,0.5,0.1,0.8-0.1
						l4.1-2.3l0.9-0.5l1.1-0.6c0.4-0.2,0.9-1,0.9-1.7l0,0c0-0.5-0.1-0.9-0.3-0.9c0-0.1,0-0.2,0-0.3v0.3c0.3-0.3,0.6-1.1,0.6-1.9l0,0
						c0-0.8-0.3-1.2-0.6-1.1v0l0.2-0.1c0.4-0.2,0.8-1.2,0.8-1.8l0,0c0-0.6-0.3-1.1-0.8-0.9l0.2-0.1c0.4-0.2,0.8-1.2,0.8-1.8l0,0
						C274.3,245.6,274,245.2,273.6,245.4z"/>
				</g>
				<g>
					<polygon class="st4" points="239.8,258.7 235.2,255.9 235.2,246.1 239.8,248.9 					"/>
					<path class="st4" d="M249.8,253.3l-1.2-0.8l-0.9-0.6l-2.4-1.4c0,0,0.6-1.5,0.2-4.8c-0.1-0.9-0.4-1.5-0.8-2
						c-0.6-0.8-1.2-0.6-1.3,0.2c0,0,0.2,0.9-0.4,3.7c-0.7,3.3-2.8,2.5-2.8,2.5v6.7c0.5,0.5,0.8,1.1,1.1,1.5c0.2,0.4,0.5,0.7,0.9,0.9
						l4.4,2.7l1,0.6l1.2,0.7c0.4,0.3,0.9,0,0.9-0.6l0,0c0-0.5-0.1-1-0.3-1.3c0-0.1,0-0.2,0-0.3v0.3c0.4,0.1,0.6-0.4,0.6-1.2l0,0
						c0-0.8-0.3-1.5-0.6-1.8v-0.1l0.2,0.1c0.4,0.3,0.8-0.2,0.8-0.9l0,0c0-0.6-0.4-1.5-0.8-1.8l0.2,0.1c0.4,0.3,0.8-0.3,0.8-0.9l0,0
						C250.6,254.5,250.2,253.6,249.8,253.3z"/>
				</g>
			</g>
		</g>
	</g>
</g>
<g id="Layer_8_1_">
	<g id="Layer_16">
		<g>
			<g>
				<g>
					<g>
						<g>
							<polygon class="st33" points="216.1,326.8 216.1,364.1 247.5,382.8 247.5,345 							"/>
							<polygon class="st25" points="216.1,326.8 250.2,306.4 281.5,324.8 247.5,345 							"/>
							<polygon class="st34" points="247.5,382.8 281.5,363.3 281.5,324.8 281.5,324.8 247.5,345 							"/>
						</g>
					</g>
				</g>
			</g>
			<path class="st4" d="M241.1,356.6c0-4.6-2.3-9.6-5.2-11c-1.7-0.9-3.3-0.3-4.2,1.4c-0.9-2.6-2.5-4.8-4.2-5.6
				c-2.9-1.5-5.2,1.1-5.2,5.8c0,2.7,0.8,5.6,2.1,7.7l0,0l7.3,12.3l7.3-4.9l0,0C240.3,361.4,241.1,359.4,241.1,356.6z"/>
			<path class="st33" d="M256.5,355.3c0-4.6,2.3-9.6,5.2-11c1.7-0.9,3.3-0.3,4.2,1.4c0.9-2.6,2.5-4.8,4.2-5.6
				c2.9-1.5,5.2,1.1,5.2,5.8c0,2.7-0.8,5.6-2.1,7.7l0,0l-7.3,12.3l-7.3-4.9l0,0C257.3,360.1,256.5,358.1,256.5,355.3z"/>
		</g>
	</g>
</g>
<g id="Layer_7_1_">
	<g id="Layer_15">
		<g>
			<g>
				<g>
					<g>
						<g>
							<polygon class="st33" points="137.1,252.9 137.1,271.3 152.7,280.6 152.7,261.9 							"/>
							<polygon class="st25" points="137.1,252.9 154,242.8 169.5,251.9 152.7,261.9 							"/>
							<polygon class="st34" points="152.7,280.6 169.5,270.9 169.5,251.9 169.5,251.9 152.7,261.9 							"/>
						</g>
					</g>
				</g>
			</g>
			<path class="st4" d="M149.5,267.6c0-2.3-1.1-4.7-2.6-5.5c-0.9-0.4-1.6-0.1-2.1,0.7c-0.5-1.3-1.2-2.4-2.1-2.8
				c-1.4-0.7-2.6,0.6-2.6,2.9c0,1.4,0.4,2.8,1,3.8l0,0l3.6,6.1l3.6-2.4l0,0C149.1,270,149.5,269,149.5,267.6z"/>
			<path class="st33" d="M157.1,267c0-2.3,1.1-4.7,2.6-5.5c0.9-0.4,1.6-0.1,2.1,0.7c0.5-1.3,1.2-2.4,2.1-2.8
				c1.4-0.7,2.6,0.6,2.6,2.9c0,1.4-0.4,2.8-1,3.8l0,0l-3.6,6.1l-3.6-2.4l0,0C157.5,269.3,157.1,268.3,157.1,267z"/>
		</g>
	</g>
</g>
<g id="Layer_6_1_">
	<g id="Layer_14">
		<g>
			<g>
				<g>
					<g>
						<g>
							<polygon class="st33" points="329.7,387.3 329.7,405.8 345.2,415 345.2,396.3 							"/>
							<polygon class="st25" points="329.7,387.3 346.6,377.2 362.1,386.3 345.2,396.3 							"/>
							<polygon class="st34" points="345.2,415 362.1,405.4 362.1,386.3 362.1,386.3 345.2,396.3 							"/>
						</g>
					</g>
				</g>
			</g>
			<path class="st4" d="M342.1,402.1c0-2.3-1.1-4.7-2.6-5.5c-0.9-0.4-1.6-0.1-2.1,0.7c-0.5-1.3-1.2-2.4-2.1-2.8
				c-1.4-0.7-2.6,0.6-2.6,2.9c0,1.4,0.4,2.8,1,3.8l0,0l3.6,6.1l3.6-2.4l0,0C341.7,404.4,342.1,403.4,342.1,402.1z"/>
			<path class="st33" d="M349.7,401.4c0-2.3,1.1-4.7,2.6-5.5c0.9-0.4,1.6-0.1,2.1,0.7c0.5-1.3,1.2-2.4,2.1-2.8
				c1.4-0.7,2.6,0.6,2.6,2.9c0,1.4-0.4,2.8-1,3.8l0,0l-3.6,6.1l-3.6-2.4l0,0C350.1,403.8,349.7,402.8,349.7,401.4z"/>
		</g>
	</g>
</g>
<g id="Layer_5_1_">
	<g id="Layer_13">
		<g id="Layer_33">
			<g id="Layer_38">
				<path class="st35" d="M328.5,158.4h-99.4c-8.6,0-15.6,7-15.6,15.6l0,0c0,1,0.1,2,0.3,2.9c-0.1,0.1-0.2,0.1-0.3,0.2l-4.7,4.7
					c-0.8,0.8-0.2,2.3,0.9,2.3h7.5c2.9,3.4,7.2,5.6,11.9,5.6h99.4c8.6,0,15.6-7,15.6-15.6l0,0C344.1,165.4,337.1,158.4,328.5,158.4z
					"/>
			</g>
			<g id="Layer_37">
				<path class="st36" d="M245.1,166.4h-18.5c-1.3,0-2.3-1-2.3-2.3v-0.4c0-1.3,1-2.3,2.3-2.3h18.5c1.3,0,2.3,1,2.3,2.3v0.4
					C247.5,165.3,246.4,166.4,245.1,166.4z"/>
			</g>
			<g id="Layer_36">
				<path class="st36" d="M301,166.4h-4.3c-1.3,0-2.3-1-2.3-2.3v-0.4c0-1.3,1-2.3,2.3-2.3h4.3c1.3,0,2.3,1,2.3,2.3v0.4
					C303.3,165.3,302.2,166.4,301,166.4z"/>
			</g>
			<g id="Layer_35">
				<path class="st37" d="M344.1,185.3c0,2.4,1.9,4.3,4.3,4.3s4.3-1.9,4.3-4.3s-1.9-4.3-4.3-4.3C346.1,181,344.1,182.9,344.1,185.3z
					"/>
			</g>
			<g id="Layer_34">
				<path class="st37" d="M355.1,185.3c0,2.4,1.9,4.3,4.3,4.3s4.3-1.9,4.3-4.3s-1.9-4.3-4.3-4.3S355.1,182.9,355.1,185.3z"/>
			</g>
		</g>
		<text transform="matrix(1 0 0 1 225.5797 179.9795)" class="st38 st39 st40">Invite your friends :)</text>
	</g>
</g>
<g id="Layer_4_1_">
	<g id="Layer_12">
		<g>
			<polygon class="st41" points="347.4,384 348.1,385.8 340.4,388.9 344.9,385 			"/>
			<g>
				<polygon class="st41" points="383,365.3 386,367.2 380.6,375.9 381.9,367.2 				"/>
				<path class="st42" d="M381.9,367.2l-29.5-5.6l-6-15.2l14.5-15.9l-1.9,24.3c0,0,11.1,1.3,24,10.5L381.9,367.2z"/>
				<path class="st43" d="M359.8,334l-3.7,1.7l-9.7,10.6l1.5,3.8c8.5-5.1,11.2-13.5,11.8-15.6C359.8,334.2,359.8,334,359.8,334z"/>
				<path class="st44" d="M360.7,326.4c0,0,2.2,10.3-4.8,19.4s-8,10-8,10s3.3,13.7-0.6,28.4l-2.8,1.1l-4.9-31.9l5.2-20.6
					L360.7,326.4z"/>
				<path class="st42" d="M361,331.9l-5.8-0.3l-4.4-0.4l-6.3,2.8c0,0,7.4,4.7,15.8,2.7C360.7,334.9,360.9,333.3,361,331.9z"/>
				<path class="st45" d="M360.8,326.7c-0.1,0-0.2-0.1-0.3-0.1l-16.3,6.1c0,0,8.3,3.5,16.5,2.1C361.4,330.8,360.9,327.6,360.8,326.7
					z"/>
			</g>
			<g>
				<path class="st46" d="M349.2,301.4c0,0-16.1-7.8-18.5-21.4l-4,2c0,0,1.3,17.8,19.4,29.8C346,311.8,350.1,307.4,349.2,301.4z"/>
				<path class="st47" d="M344.8,311.1l4.5-9.7l-11.4,3.5C339.4,306.6,341.9,309.3,344.8,311.1z"/>
				<path class="st48" d="M329.3,279.4c0,0,0.9-1.6,1-2.2c0,0,1-3.2,1.1-3.7c0,0-0.6-0.5-1.1,0.3s-0.9,1.9-0.9,1.9s-0.3-1.4-0.2-2.3
					c0.1-0.9,0.3-2.7,0-3.2s-0.7,0-0.7,0s-0.3,2.8-0.4,3.4c-0.1,0.5-0.3,0.4-0.3,0.4s-0.4-3.2-0.4-3.8c-0.1-0.6-0.4-0.8-0.9-0.5
					c0,0,0.2,1.7,0.2,2.8c0,0.4,0.3,1.6-0.2,1.6c0,0-0.6-2.7-0.6-3.2s-0.5-0.7-0.8-0.3l0.5,3.8c0,0,0,0.3-0.2,0.2
					c-0.2-0.1-1-1.7-1-1.9c0-0.2-0.2-0.8-0.7-0.6c0,0-0.1,0.1,0,0.7c0.2,0.6,0.8,3.2,0.8,3.2s0.3,1.8,1.5,3.4c1.2,1.7,2,1.5,0.9,1.2
					l1-0.5L329.3,279.4z"/>
				<polygon class="st49" points="325.2,279.1 330.7,278 331.4,280.9 325.9,282.1 				"/>
			</g>
			<path class="st50" d="M362.4,332.8c0,0-5.2,5.2-18.3,1c0,0,0.1-15.9,0.1-23.8c0-4.4,2.7-8.6,6.2-8.6h6.2c0.5,0,1.1,0.1,1.6,0.3
				l1.3,0.6l2.4,27.3L362.4,332.8z"/>
			<path class="st51" d="M360.3,290.8c0.4-3-2.4-6.1-5.1-6.1c-0.3,0.5-1,0.9-1.4,1.3c-1,1.3-2.3,2.4-3.8,3.1
				c-0.1,0.1-0.2,0.1-0.4,0.2l2,6.4l2.1,3.3l2,0.6c0.4-0.2,1.1-1,1.4-1.4C362.6,295.3,360.3,290.8,360.3,290.8z"/>
			<polyline class="st4" points="346.7,294.2 346.4,296.3 349.3,296.7 350.3,295.4 350.1,294.1 			"/>
			<path class="st48" d="M354.6,297.9L354.6,297.9c0,0-0.9-1.1-0.6-2.9c0,0,2.2,0.3,2.4-1.4c0.1-1.4-1.6-1.5-2.5-0.5l-0.5,1.5
				c0,0-0.8-0.3,0-3.1l-0.6-1.5l-3.3-1.1c0,0-2.1,2.4-2.8,5.4c0,0-0.6,3-0.6,3.8l3.6,1.2l-0.8,2.8l-0.5,3.6l6.2-3.2l1.2-3.6
				C355.8,298.8,355.2,298.5,354.6,297.9z"/>
			<path class="st51" d="M355.2,284.6c0,0-2.8-0.5-4.9-3v1.5c0,0-1.3-0.6-2-2c0,0-2.8,5.1,0.5,7.9l-1.7,0.5c0,0,2.7,1.5,5.6,0.3
				l-0.1-2.5L355.2,284.6z"/>
			<g>
				<path class="st46" d="M359.5,312.6c0,0,9.5,0.8,16.4,15.5l4.2-0.6c0,0-4.6-20-21.8-25.7C358.3,301.8,356.2,307.4,359.5,312.6z"
					/>
				<polyline class="st4" points="377.8,335.7 374.2,336.7 372.9,332.9 376.2,332.1 379.8,331 381.6,331.9 380.6,333.4 				"/>
				<polygon class="st48" points="375.9,328.1 377,330.3 375.7,332.2 376.2,332.1 377.1,332.7 377.6,333.6 377.8,335.7 379,336.4 
					380.6,334.8 382.1,334.3 383,330.9 380.2,328.6 380.1,327.5 				"/>
			</g>
		</g>
	</g>
</g>
<g id="Layer_3_1_">
	<g id="Layer_11">
		<g>
			<polygon class="st41" points="146.9,250.3 147.5,251.8 141.2,254.4 144.9,251.1 			"/>
			<g>
				<polygon class="st41" points="175.9,235.2 178.3,236.8 173.9,243.8 175,236.7 				"/>
				<path class="st42" d="M175,236.7l-24-4.6l-4.9-12.4l11.8-12.9l-1.5,19.8c0,0,9,1.1,19.5,8.6L175,236.7z"/>
				<path class="st43" d="M157,209.8l-3,1.4l-7.9,8.6l1.2,3c6.9-4.1,9.1-10.9,9.6-12.6C157,210,157,209.8,157,209.8z"/>
				<path class="st44" d="M157.8,203.6c0,0,1.8,8.4-3.9,15.8c-5.7,7.4-6.5,8.1-6.5,8.1s2.7,11.1-0.5,23.1l-2.3,0.9l-4-25.9l4.2-16.7
					L157.8,203.6z"/>
				<path class="st42" d="M158,208.1l-4.7-0.2l-3.6-0.3l-5.1,2.2c0,0,6,3.8,12.8,2.2C157.8,210.5,157.9,209.2,158,208.1z"/>
				<path class="st45" d="M157.8,203.8c-0.1,0-0.2-0.1-0.3-0.1l-13.2,5c0,0,6.7,2.8,13.4,1.7C158.3,207.1,157.9,204.6,157.8,203.8z"
					/>
			</g>
			<g>
				<path class="st46" d="M145.1,187c0,0-6.6,12.9-17.6,14.8l1.6,3.3c0,0,14.5-0.8,24.4-15.3C153.5,189.7,150.1,186.3,145.1,187z"/>
				<path class="st47" d="M153,190.7l-7.8-3.7l2.7,9.3C149.2,195,151.5,193,153,190.7z"/>
				<path class="st48" d="M127,202.9c0,0-1.3-0.8-1.8-0.9c0,0-2.5-0.8-3-1c0,0-0.4,0.5,0.2,0.9s1.6,0.8,1.6,0.8s-1.1,0.3-1.9,0.1
					c-0.7-0.1-2.2-0.3-2.6,0s0,0.6,0,0.6s2.2,0.3,2.7,0.4c0.4,0.1,0.3,0.2,0.3,0.2s-2.6,0.3-3.1,0.3s-0.6,0.3-0.4,0.7
					c0,0,1.4-0.1,2.3-0.1c0.3,0,1.3-0.2,1.3,0.2c0,0-2.2,0.5-2.6,0.5s-0.5,0.4-0.3,0.7l3.1-0.4c0,0,0.2,0,0.2,0.2
					c-0.1,0.1-1.4,0.8-1.5,0.8c-0.2,0-0.6,0.2-0.5,0.5c0,0,0.1,0.1,0.5,0c0.5-0.1,2.6-0.6,2.6-0.6s1.5-0.2,2.8-1.1
					c1.4-1,1.2-1.6,1-0.7l-0.4-0.8L127,202.9z"/>
				<polygon class="st49" points="126.8,206.2 126,201.8 128.3,201.2 129.2,205.7 				"/>
			</g>
			<path class="st50" d="M159.2,208.8c0,0-4.2,4.2-14.8,0.8c0,0,0.1-12.9,0.1-19.3c0-3.6,2.2-7,5-7h5c0.4,0,0.9,0.1,1.3,0.3l1,0.4
				l2,22.1L159.2,208.8z"/>
			<path class="st51" d="M153.6,173.5c-0.6-2.4-3.6-3.9-5.6-3.2c-0.1,0.4-5.1-1.8-3.9,1.7c-1.9,0.4-0.5,3,1,3.4
				c-0.1,0.1-0.2-0.2,0,0l3.4,4.2l2.5,1.9l1.7-0.1c0.2-0.3,0.5-1.1,0.7-1.4C156.8,176.3,153.6,173.5,153.6,173.5z"/>
			<polyline class="st4" points="144.4,180.1 144.7,181.8 147.1,181.2 147.4,179.9 146.9,179 			"/>
			<path class="st48" d="M151.4,180.6L151.4,180.6c0,0-1-0.6-1.3-2c0,0,1.8-0.5,1.4-1.7c-0.3-1.1-1.6-0.6-2,0.3l0.1,1.2
				c0,0-0.7,0-0.9-2.4l-0.9-1l-2.8,0.1c0,0-0.9,2.4-0.5,4.9c0,0,0.4,2.4,0.6,3.1l3.1-0.1l0.2,2.3l0.7,2.9l3.8-4.2l-0.1-3.1
				C152.6,180.9,152.1,180.8,151.4,180.6z"/>
			<g>
				<path class="st46" d="M156.7,192.4c0,0,7.7,0.7,13.3,12.6l3.4-0.5c0,0-3.8-16.3-17.7-20.8C155.8,183.7,154.1,188.2,156.7,192.4z
					"/>
				<polyline class="st4" points="171.6,211.2 168.7,212 167.7,208.9 170.4,208.2 173.2,207.3 174.7,208.1 173.9,209.3 				"/>
				<polygon class="st48" points="170,205 171,206.7 169.9,208.3 170.4,208.2 171.1,208.8 171.5,209.5 171.6,211.2 172.6,211.7 
					173.9,210.4 175.1,210 175.8,207.2 173.6,205.4 173.5,204.5 				"/>
			</g>
		</g>
	</g>
</g>
<g id="Layer_2">
	<g id="Layer_10">
		<g>
			<g>
				<path class="st52" d="M272,324.7c0,3.5-7.3,6.4-16.4,6.4c-9,0-16.4-2.9-16.4-6.4s7.3-6.4,16.4-6.4
					C264.7,318.3,272,321.2,272,324.7z"/>
				<g>
					<path class="st53" d="M261.9,263.3h3.5l-2,61.1h-2.6c0,0-4.7-19-3.5-31.6c1.1-14.5-1.2-20.7-1.2-20.7"/>
					<path class="st54" d="M263.5,263.3l-5.1,28.7l-17.7,27.2l-2.7-1.1c0,0,6.6-19.6,13.6-29L248,275c0,0-1.9-5.5-1.2-11.7H263.5z"
						/>
					<polyline class="st55" points="265.3,267.4 246.7,266.9 246.9,263.3 					"/>
					<path class="st41" d="M238,318.2l-0.4,0.6c-0.2,0.2-0.1,0.5,0.1,0.7l7.9,6.2c0,0,0.4-3-3.3-6.1C240,318.3,238,318.2,238,318.2z
						"/>
				</g>
				<path class="st41" d="M260.4,323.5v0.7c0,0.3,0.2,0.5,0.5,0.5h9.9c0,0-1.4-2.7-6.2-2.8C262.1,322.4,260.4,323.5,260.4,323.5z"/>
				<polygon class="st51" points="266.8,249.9 274.3,250 282.7,223.6 268.6,224 				"/>
				<path class="st48" d="M292.6,257.9l2.2-1.9l3.9-0.2c0,0,1.3-0.1,1.1,0.3c-0.2,0.4-2.5,1-2.5,1l-1.5,1.5c0,0,1.6-0.3,2.2-0.6
					c0.6-0.3,0.8,0.3,0.6,0.6c-0.2,0.3-2.3,1.1-3,1.3c-0.7,0.2-2.5,0.1-2.5,0.1l-0.9-0.8L292.6,257.9z"/>
				<path class="st46" d="M265.5,238c1.4-1.6,6-3,8.5,3.7c3,8,7.3,13.6,19.3,16l-0.2,2.1c0,0-13.5,2.2-24.2-12.5
					C265.5,242.6,263.2,240.7,265.5,238z"/>
				<g>
					<g>
						<g>
							<g>
								<g>
									<g>
										<path class="st51" d="M275.3,220.9c-0.9,2,0.1,4.3,2.1,5.2s4.3-0.1,5.2-2.1c0.9-2-0.1-4.3-2.1-5.2
											C278.5,218,276.2,218.9,275.3,220.9z"/>
										<path class="st51" d="M282,220.7c-0.1,0.5-0.7,0.8-1.2,0.7s-0.8-0.7-0.7-1.2c0.1-0.5,0.7-0.8,1.2-0.7
											S282.2,220.2,282,220.7z"/>
										<path class="st51" d="M281.7,221.9c-0.1,0.5-0.7,0.8-1.2,0.7s-0.8-0.7-0.7-1.2c0.1-0.5,0.7-0.8,1.2-0.7
											C281.6,220.8,281.9,221.4,281.7,221.9z"/>
										<path class="st51" d="M281.3,219.5c0,0,0.2-5-5.4-5.9c0,0-1.7,1.9-6.4,3.7c0.2,1.8-1.3,2.7-2,4.3
											c-3,7.4-6.9,15.1-13.4,20.1c-0.1,0.1-0.2,0.1-0.3,0.2c-0.7,0.9-1.4,1.7-2.2,2.5c0.9,1.5,2.6,3.1,5.9,3.8
											c6.1-6.5,10.7-14.3,10.7-14.3l5.2-4.6l4.7-1.9C278,227.5,283.9,221.1,281.3,219.5z"/>
										<path class="st48" d="M281.3,221.6c0,0,2,5.2-4.7,12.4l-3.6-2.1l-1.9,4.5l-4.9-2.1l2.2-5.2c0,0,2.7-0.6,3.9-3.3
											c0,0-2.5-1.2-1.3-3.4c0.8-1.4,2.9-0.8,2.9,0.9l-1.3,3.9c0,0,1.9-2.5,2.9-4.5c0,0,1.2,0.4,2.8,0.1
											C280.5,222.4,281.3,221.6,281.3,221.6z"/>
										<path class="st4" d="M277.4,228.8l2.3,1.3c-0.4,0.7-0.9,1.4-1.5,2.1C276.1,230.9,277.4,228.8,277.4,228.8z"/>
									</g>
									<path class="st50" d="M268.1,232.8L268.1,232.8c-2.5-1.1-5.7,0-6.5,2.7c-4.4,5.4-5.3,14.3-8.4,19.2c-3.2,5-6.4,8.6-6.4,8.6
										l18.4,4.1c0,0,2.5-12.6,3.3-13.5s5.3-0.9,6.7-4.9l-3.6-11.9C271.3,235.1,269.9,233.6,268.1,232.8z"/>
									<path class="st56" d="M268.6,253.9c0.2-0.3,0.8-0.5,1.5-0.7c0-2.1-3.4-2.7-3-4.9c1.3-7.7-0.1-10.4-2.3-9.7
										c-3.7,1.2-5.3,5.3-4.5,11.7c0.8,6.6,3,11.8,5.3,15.5C266.7,261.4,268.1,254.5,268.6,253.9z"/>
									<path class="st46" d="M266.3,232.5l0.3-0.5c-0.7,0.1,3.7-0.1,5.6,3.6l-0.4,2C271.8,237.6,270,234.4,266.3,232.5z"/>
									<path class="st51" d="M263.2,230.8c-0.3,1.1,0.4,2.2,1.5,2.4c1.1,0.3,2.2-0.4,2.4-1.5c0.3-1.1-0.4-2.2-1.5-2.4
										C264.5,229,263.4,229.7,263.2,230.8z"/>
								</g>
							</g>
						</g>
					</g>
					<path class="st51" d="M275.9,213.6c0,0-5.9-1.1-11.3,5.9c-8.9,11.4-17.7,18.4-23,16c-3.1,11.8,4.4,20.8,9.6,22.2
						c0,0,4.4-4.7,6.4-11.7c0.8-2.8,2.5-8.4,5.4-10.4c0,0,5.5,0.6,5.4-6.6c-0.9-5.6,4.8-10.1,4.8-10.1l4.8-1.2L275.9,213.6z"/>
				</g>
				<path class="st48" d="M279.4,269c0,0,1.7-0.4,2.4-0.3c0,0,3.2,0,3.7,0.1c0,0,0.3,0.7-0.6,0.9c-0.9,0.3-2.1,0.3-2.1,0.3
					s1.2,0.7,2.1,0.9c0.9,0.1,2.6,0.5,2.9,0.9c0.3,0.5-0.2,0.6-0.2,0.6s-2.6-0.5-3.2-0.6c-0.5-0.1-0.4,0.1-0.4,0.1s2.9,1.3,3.4,1.5
					s0.6,0.6,0.2,1c0,0-1.5-0.7-2.5-1c-0.3-0.1-1.4-0.7-1.5-0.3c0,0,2.3,1.4,2.8,1.5c0.4,0.2,0.5,0.6,0,0.9l-3.3-1.6
					c0,0-0.3-0.1-0.2,0.1c0,0.2,1.2,1.4,1.4,1.5c0.2,0.1,0.7,0.4,0.3,0.8c0,0-0.1,0.1-0.6-0.2c-0.5-0.3-2.7-1.7-2.7-1.7
					s-1.6-0.8-2.7-2.4c-1.2-1.6-0.8-2.3-0.9-1.2l0.8-0.7L279.4,269z"/>
				<g>
					<path class="st46" d="M265.5,236.8c2.6,0,3.8,2.4,4.6,9.9c0.9,8.9,0.4,14.6,9.7,22.4l-1.7,2.4c0,0-12.2-5.8-15.4-23.5
						C261.7,242.2,262,236.8,265.5,236.8z"/>
				</g>
			</g>
		</g>
	</g>
</g>
</svg>
