<?xml version="1.0" encoding="utf-8"?>
<!-- Generator: Adobe Illustrator 24.1.1, SVG Export Plug-In . SVG Version: 6.00 Build 0)  -->
<svg version="1.1" id="Layer_1" xmlns="http://www.w3.org/2000/svg" xmlns:xlink="http://www.w3.org/1999/xlink" x="0px" y="0px"
	 viewBox="0 0 8192 8192" style="enable-background:new 0 0 8192 8192;" xml:space="preserve">
<style type="text/css">
	.st0{fill:none;}
	.st1{fill:#662D91;}
	.st2{fill:#FFFFFF;}
	.st3{font-family:'LeagueSpartan-Bold';}
	.st4{font-size:318.0591px;}
</style>
<g id="Layer_2_1_">
	<rect x="3731.6" y="3888.1" class="st0" width="734.9" height="415.9"/>
</g>
<g id="Layer_3">
	<path class="st1" d="M2988.9,2056.2c530.7,437.8,1048.3,842,888.5,1148c-199.4,472.5-1918.7,924-2266.4,1554.1
		c-199.3,361.2-21.3,954.1,506.6,1127.5c591.2,269.6,2301.3,1320.6,2446.5,2021.7c2.4,11.5,7.8,22.2,12,33.1c0.4,1,0.8,2,1.1,3.1
		l129.6,365.3c1.2,3.4,2.5,6.7,4,9.9c132.9,290.9-635,838.5,477.2,1269.7c4262.8,1652.4,3337.3-2453,3761.4-2712
		c50.7-31.7,105.8-54.9,161.8-73.2c528.1-170.4,867.7-699,777-1231.5l-863.3-5099c-98-580.7-399.9-1468-984.7-1354
		c-19.5,3.8-39.7,3-58.9-2.5c-331.6-94.8-2967.6-827.2-3612.8,221.7c-22.3,36.2-56.2,63.8-96.1,78.6
		C3867.1-433,1902.5,684.7,2768.2,1827C2832.5,1911.8,2906.8,1988.5,2988.9,2056.2z"/>
</g>
<text transform="matrix(1 0 0 1 3315.2871 1303.694)"><tspan x="0" y="0" class="st2 st3 st4">Bringing attendees to</tspan><tspan x="0" y="381.7" class="st2 st3 st4">event organisors</tspan></text>
</svg>
