<?xml version="1.0" encoding="utf-8"?>
<!-- Generator: Adobe Illustrator 24.1.1, SVG Export Plug-In . SVG Version: 6.00 Build 0)  -->
<svg version="1.1" xmlns="http://www.w3.org/2000/svg" xmlns:xlink="http://www.w3.org/1999/xlink" x="0px" y="0px"
	 viewBox="0 0 8192 8192" style="enable-background:new 0 0 8192 8192;" xml:space="preserve">
<style type="text/css">
	.st0{display:none;}
	.st1{display:inline;stroke:#000000;stroke-width:0.4333;stroke-miterlimit:4.3327;}
	.st2{fill:#4949FF;}
	.st3{fill:#000099;}
	.st4{fill:#000080;}
</style>
<g id="Layer_4">
	<g id="Layer_2_1_" class="st0">
		<rect x="2842" y="3937.7" class="st1" width="559.7" height="316.7"/>
	</g>
</g>
<g id="Layer_3_2_">
	<g id="Layer_5">
		<g id="Layer_3_3_">
			<path class="st2" d="M2826,3191.8c2.9,1.8,5.9,3.7,8.8,5.8l0,0c260.5,227.5,1272,368,1240,703.1
				c-61.9,460.1-1593.7,1382.4-1754.9,2021.8c-92.4,366.5,441.4,765.6,798.6,787.8c643.8,40,2580.6,383.5,2913.6,927
				c5.5,8.9,13.6,16.2,20.7,24c0.6,0.7,1.4,1.4,1.9,2.3l225.5,266.1c2.1,2.5,4.3,4.8,6.6,7c208.2,202.6-380.7,905.3,809.4,916.6
				c4561.3,43.2,5134.6-2258.8,5471.6-2610.3c40.1-42.7-513.2-2085.4-747.3-2504.3l-1512.6-4615
				c-254.4-457.2-2724.4-486.6-2744.5-485.1c-345.5,25-3748.2,772.1-4080.7,1857.4c-11.5,37.5-36.6,71.4-70.9,96.4
				C3045,859.7,1441.5,2345.1,2826,3191.8z"/>
		</g>
	</g>
</g>
<g id="Layer_6">
	<g id="Layer_3_1_">
		<path class="st3" d="M2441.3,2681.6c2.3,2.2,4.8,4.5,7,6.9l0,0c198,256,1095.9,565.8,1008.3,868.7
			c-136.5,412.7-1693.8,988.9-1952.1,1549c-148.1,321.1,269.3,783.8,591.1,868c580.1,151.6,2286.4,813.4,2495.4,1373.4
			c3.5,9.2,9.6,17.4,14.7,25.8c0.5,0.8,1,1.5,1.4,2.4l159.3,285.3c1.5,2.7,3.1,5.2,4.8,7.7c154.6,223.7-504.7,765.8,578.6,988.5
			c4151.8,853.3,5075.1-1164.5,5443.7-1428.2c44-32.1-105.1-2012.1-245.6-2439.7L9971.8,269.4c-152.4-466.4-2399.6-934-2418.1-936.3
			c-319.4-38.6-3552.2,42.6-4044.3,982.8c-17,32.5-45.8,59.2-81.4,76.1C3046.9,572.9,1326.2,1655,2441.3,2681.6z"/>
	</g>
</g>
<g id="Layer_2">
	<g id="Layer_3">
		<path class="st4" d="M2189.3,2100.9c1.9,2.5,3.9,5.1,5.7,7.7l0,0c154.4,278.9,955.7,699.8,838,989.2
			c-176.5,392.1-1698.9,766.9-2006.8,1289.8c-176.4,299.8,158.1,811.6,448.6,935.7c523.5,223.7,2037.7,1096,2166.3,1677.9
			c2.2,9.5,6.9,18.4,10.6,27.5c0.3,0.8,0.7,1.7,1,2.6l114.8,303.2c1.1,2.8,2.2,5.6,3.6,8.2c117.7,241.4-562.3,695.9,422.5,1053.8
			c3774.5,1371.4,4876.6-513.5,5252-728.4c44.9-26.3,141.3-2009.3,61-2451.2V660.2c-86.8-481.9-2129.1-1230-2146.1-1234.5
			C7066.9-653,4039.2-981.2,3467.9-110.7c-19.8,30-49.8,52.9-85.1,65.2C3005.6,85.7,1270.4,941.5,2189.3,2100.9z"/>
	</g>
</g>
</svg>
