<?xml version="1.0" encoding="utf-8"?>
<!-- Generator: Adobe Illustrator 24.1.1, SVG Export Plug-In . SVG Version: 6.00 Build 0)  -->
<svg version="1.1" id="Layer_1" xmlns="http://www.w3.org/2000/svg" xmlns:xlink="http://www.w3.org/1999/xlink" x="0px" y="0px"
	 viewBox="0 0 10756.3 8192" style="enable-background:new 0 0 10756.3 8192;" xml:space="preserve">
<style type="text/css">
	.st0{display:none;}
	.st1{display:inline;stroke:#000000;stroke-width:0.5689;stroke-miterlimit:5.6889;}
	.st2{fill:#23005C;}
</style>
<g id="Layer_2_1_" class="st0">
	<rect x="3731.6" y="3888.1" class="st1" width="734.9" height="415.9"/>
</g>
<g id="Layer_3">
	<path class="st2" d="M2968.9,2113.2c2.3,3,4.7,6.1,6.9,9.3l0,0c186,336.1,1151.6,843.2,1009.7,1191.9
		c-212.7,472.5-2047.1,924-2418,1554.1c-212.6,361.2,190.5,977.9,540.5,1127.5c630.8,269.6,2455.3,1320.6,2610.2,2021.7
		c2.6,11.5,8.3,22.2,12.8,33.1c0.4,1,0.9,2,1.2,3.1l138.3,365.3c1.3,3.4,2.7,6.7,4.3,9.9c141.8,290.9-677.5,838.5,509.1,1269.7
		c4548,1652.4,5875.9-618.7,6328.3-877.7c54.1-31.7,170.3-2421,73.5-2953.5V377.2c-104.6-580.7-2565.4-1482-2585.9-1487.5
		c-353.8-94.8-4002-490.3-4690.3,558.6c-23.8,36.2-60,63.8-102.5,78.6C3952.4-315,1861.7,716.2,2968.9,2113.2z"/>
</g>
</svg>
