<?xml version="1.0" encoding="utf-8"?>
<!-- Generator: Adobe Illustrator 24.1.1, SVG Export Plug-In . SVG Version: 6.00 Build 0)  -->
<svg version="1.1" id="Layer_1" xmlns="http://www.w3.org/2000/svg" xmlns:xlink="http://www.w3.org/1999/xlink" x="0px" y="0px"
	 viewBox="0 0 8192 8192" style="enable-background:new 0 0 8192 8192;" xml:space="preserve">
<style type="text/css">
	.st0{clip-path:url(#SVGID_2_);}
	.st1{fill:#0000E6;}
	.st2{fill:#0000CC;}
	.st3{fill:#0000B3;}
	.st4{fill:#000099;}
	.st5{fill:#000080;}
	.st6{fill:#00007A;}
	.st7{fill:#000073;}
	.st8{fill:#00006D;}
	.st9{fill:#000066;}
	.st10{fill:#000060;}
	.st11{display:none;}
	.st12{display:inline;}
	.st13{fill:none;}
	.st14{fill:#0000FF;}
	.st15{fill:#444444;fill-opacity:0.27;}
	.st16{fill-opacity:0.27;}
	.st17{fill:#AAAAAA;fill-opacity:0.27;}
	.st18{fill:#DDDDDD;fill-opacity:0.27;}
	.st19{fill:#999999;fill-opacity:0.27;}
	.st20{fill:#FFFFFF;fill-opacity:0.27;}
	.st21{fill:#666666;fill-opacity:0.27;}
	.st22{fill:#222222;fill-opacity:0.27;}
</style>
<g id="Layer_6">
	<g id="Layer_8">
		<g id="Layer_3">
		</g>
	</g>
	<g id="Layer_7">
	</g>
</g>
<g id="Layer_5">
	<g>
		<g>
			<defs>
				<path id="SVGID_1_" d="M2128.4,2700.4c2.4,3.1,4.9,6.4,7.2,9.7l0,0c193.9,350.4,1200.6,879.1,1052.7,1242.7
					c-221.8,492.6-2134.3,963.4-2521,1620.3c-221.7,376.6,198.6,1019.6,563.5,1175.5c657.7,281.1,2559.9,1376.8,2721.4,2107.8
					c2.7,12,8.7,23.1,13.3,34.5c0.4,1,0.9,2.1,1.3,3.2L4111,9275c1.4,3.5,2.8,7,4.5,10.3c147.8,303.3-706.4,874.2,530.8,1323.8
					C9388,12331.9,10772.5,9964,11244.1,9694c56.4-33.1,177.6-2524.1,76.6-3079.3V890.5c-109-605.5-2674.6-1545.2-2696-1550.9
					C8255.8-759.2,4452.2-1171.6,3734.6-78c-24.8,37.7-62.6,66.5-106.9,81.9C3153.8,168.8,974,1243.9,2128.4,2700.4z"/>
			</defs>
			<clipPath id="SVGID_2_">
				<use xlink:href="#SVGID_1_"  style="overflow:visible;"/>
			</clipPath>
			<g class="st0">
				<path class="st1" d="M-1333.3,8643.3c-1264.2-542.2-2614.9-931.9-3997-985.7c-632-26.9-1268.6,21.9-1901.8,158.1l-200.6,1144.7
					l10180.8,1783.9c-1315.4-718.9-2614.4-1459.9-3963.4-2050.8C-1254.5,8676.2-1294,8660.4-1333.3,8643.3z"/>
				<path class="st2" d="M13872.7,924.8L-5432-2457.8L-7232.1,7815.6c633.2-136.2,1270-186.4,1902-159.5
					c1381.9,55.3,2732.8,443.5,3997,985.7c39.3,17.2,78.5,34.4,118.1,50.1c1349.2,589.5,2648,1331.9,3963.4,2050.8l9123.9,1598.7
					L13872.7,924.8z"/>
				<path class="st3" d="M-1112.9,6846c36.6,18.2,73,37.8,108.4,55.8c2236,1164.1,4356,2727.1,6719.2,3775.3
					c2010.3,890.7,4143.9,1155.6,6282.7,950.8l1875.4-10703L-5432-2457.8l-1437.7,8205.3c675-140.6,1354.2-170.2,2021-100.4
					C-3537.6,5779.7-2285,6246.4-1112.9,6846z"/>
				<path class="st4" d="M-5432-2457.8l-1073.9,6128.6c716.9-145.1,1437.7-149.7,2137.3-33c1242.3,205.9,2394.9,753.6,3474.9,1410.6
					c33.7,20.6,66.2,41,99.9,61.6c2060.2,1273.1,4047,2858.4,6305.2,3930.7c2143.3,1018.4,4454.2,1286.5,6762.8,999.6l1597.3-9115.9
					L-5432-2457.8z"/>
				<path class="st5" d="M-3887.2,1628.9c1169.8,293.2,2227.3,908.1,3213.7,1623.8c31,21.6,60.6,44.5,91.6,66.1
					c1884.1,1383.4,3738.5,2986.7,5891,4087.6c2269.1,1159.6,4765.2,1435.2,7243.7,1051.5l1319.9-7533.1L-5432-2457.8l-708.2,4042
					C-5379.4,1429.2-4616.4,1446.7-3887.2,1628.9z"/>
				<path class="st6" d="M13872.7,924.8L-5432-2457.8l-340.9,1945.4c803.9-166.6,1609.5-122.5,2367,132.3
					C-2306.8-9.5-1347.3,682.3-453.1,1455.3c28.1,24.1,55,47.9,83.2,71.9C1338.4,3019.7,3060,4642.4,5108.2,5770.6
					c2387.2,1315.6,5075.3,1610.1,7722.4,1108.9L13874,925L13872.7,924.8z"/>
				<path class="st7" d="M-159.2-264.3C1373.1,1338.5,2963,2974.8,4905,4134.5c2348.3,1403,5051.8,1779.6,7709.8,1272.9
					c164.7-31.5,327.5-66.2,492-103.6L13874,925L-1955.9-1848.7c622.4,422.4,1185,952,1721.8,1508
					C-208.7-315.7-184.7-289.4-159.2-264.3z"/>
				<path class="st8" d="M13872.7,924.8L576.6-1404.9C1787,69.3,3103.2,1457.7,4702.8,2498.5
					c2141.1,1393.1,4639.4,1911.8,7126.2,1559c520.3-73.6,1041.5-188.2,1555.8-340.8L13874,925L13872.7,924.8z"/>
				<path class="st9" d="M11042.4,2706.1c596-51.5,1192.6-163.2,1781.8-332.1c284.1-81.1,565.8-177.4,844.8-285.9l203.8-1163.2
					L2330.9-1097.6C2985.6-369.4,3700.2,292.8,4500.8,862.6C6434.2,2241.4,8727.5,2908,11042.4,2706.1z"/>
				<path class="st10" d="M10256.6,1356.3c940-20.6,1889.3-214.7,2796.9-575L4330.2-747.2
					C6055.3,599.5,8126.8,1403.8,10256.6,1356.3z"/>
			</g>
		</g>
	</g>
</g>
<g id="Layer_4_1_" class="st11">
	<g id="Layer_4" class="st12">
		<g>
			<path class="st13" d="M2476.4,2113.2c2.2,3,4.4,6.1,6.5,9.3l0,0c174.3,336.1,1079.4,843.2,946.4,1191.9
				c-199.4,472.5-1918.7,924-2266.4,1554.1c-199.3,361.2,178.6,977.9,506.6,1127.5c591.2,269.6,2301.3,1320.6,2446.5,2021.7
				c2.4,11.5,7.8,22.2,12,33.1c0.4,1,0.8,2,1.1,3.1l129.6,365.3c1.2,3.4,2.5,6.7,4,9.9c132.9,290.9-635,838.5,477.2,1269.7
				c4262.8,1652.4,3337.3-2453,3761.4-2712c50.7-31.7,105.8-54.9,161.8-73.2c528.1-170.4,867.7-699,777-1231.5l-863.3-5099
				c-98-580.7-399.9-1468-984.7-1354c-19.5,3.8-39.7,3-58.9-2.5c-331.6-94.8-2967.6-827.2-3612.8,221.7
				c-22.3,36.2-56.2,63.8-96.1,78.6C3398.2-315,1438.6,716.2,2476.4,2113.2z"/>
			<rect x="-2984.5" y="-1237.3" class="st14" width="5866.4" height="4888.7"/>
			<path class="st13" d="M2476.4,2113.2c2.2,3,4.4,6.1,6.5,9.3l0,0c174.3,336.1,1079.4,843.2,946.4,1191.9
				c-199.4,472.5-1918.7,924-2266.4,1554.1c-199.3,361.2,178.6,977.9,506.6,1127.5c591.2,269.6,2301.3,1320.6,2446.5,2021.7
				c2.4,11.5,7.8,22.2,12,33.1c0.4,1,0.8,2,1.1,3.1l129.6,365.3c1.2,3.4,2.5,6.7,4,9.9c132.9,290.9-635,838.5,477.2,1269.7
				c4262.8,1652.4,3337.3-2453,3761.4-2712c50.7-31.7,105.8-54.9,161.8-73.2c528.1-170.4,867.7-699,777-1231.5l-863.3-5099
				c-98-580.7-399.9-1468-984.7-1354c-19.5,3.8-39.7,3-58.9-2.5c-331.6-94.8-2967.6-827.2-3612.8,221.7
				c-22.3,36.2-56.2,63.8-96.1,78.6C3398.2-315,1438.6,716.2,2476.4,2113.2z"/>
			<g>
				<polygon class="st15" points="-2495.6,-422.6 -2984.5,392.2 -2006.7,392.2 				"/>
				<polygon class="st16" points="-2495.6,-422.6 -2006.7,-1237.3 -2984.5,-1237.3 				"/>
				<polygon class="st17" points="-1517.9,-422.6 -1029,-1237.3 -2006.7,-1237.3 				"/>
				<polygon class="st18" points="-540.1,-422.6 -1029,392.2 -51.3,392.2 				"/>
				<polygon class="st19" points="-540.1,-422.6 -51.3,-1237.3 -1029,-1237.3 				"/>
				<polygon class="st16" points="437.6,-422.6 -51.3,392.2 926.5,392.2 				"/>
				<polygon class="st18" points="437.6,-422.6 926.5,-1237.3 -51.3,-1237.3 				"/>
				<polygon class="st15" points="1415.3,-422.6 926.5,392.2 1904.2,392.2 				"/>
				<polygon class="st20" points="1415.3,-422.6 1904.2,-1237.3 926.5,-1237.3 				"/>
				<polygon class="st18" points="2393.1,-422.6 1904.2,392.2 2881.9,392.2 				"/>
				<polygon class="st15" points="2393.1,-422.6 2881.9,-1237.3 1904.2,-1237.3 				"/>
				<polygon class="st18" points="-2495.6,1207 -2984.5,2021.8 -2006.7,2021.8 				"/>
				<polygon class="st16" points="-2495.6,1207 -2006.7,392.2 -2984.5,392.2 				"/>
				<polygon class="st21" points="-1517.9,1207 -2006.7,2021.8 -1029,2021.8 				"/>
				<polygon class="st17" points="-1517.9,1207 -1029,392.2 -2006.7,392.2 				"/>
				<polygon class="st18" points="-540.1,1207 -1029,2021.8 -51.3,2021.8 				"/>
				<polygon class="st19" points="-540.1,1207 -51.3,392.2 -1029,392.2 				"/>
				<polygon class="st19" points="437.6,1207 -51.3,2021.8 926.5,2021.8 				"/>
				<polygon class="st20" points="437.6,1207 926.5,392.2 -51.3,392.2 				"/>
				<polygon class="st16" points="1415.3,1207 926.5,2021.8 1904.2,2021.8 				"/>
				<polygon class="st18" points="1415.3,1207 1904.2,392.2 926.5,392.2 				"/>
				<polygon class="st17" points="2393.1,1207 1904.2,2021.8 2881.9,2021.8 				"/>
				<polygon class="st15" points="2393.1,1207 2881.9,392.2 1904.2,392.2 				"/>
				<polygon class="st22" points="-2495.6,2836.6 -2984.5,3651.3 -2006.7,3651.3 				"/>
				<polygon class="st16" points="-1517.9,2836.6 -2006.7,3651.3 -1029,3651.3 				"/>
				<polygon class="st18" points="-1517.9,2836.6 -1029,2021.8 -2006.7,2021.8 				"/>
				<polygon class="st16" points="-540.1,2836.6 -51.3,2021.8 -1029,2021.8 				"/>
				<polygon class="st16" points="437.6,2836.6 -51.3,3651.3 926.5,3651.3 				"/>
				<polygon class="st15" points="437.6,2836.6 926.5,2021.8 -51.3,2021.8 				"/>
				<polygon class="st17" points="1415.3,2836.6 926.5,3651.3 1904.2,3651.3 				"/>
				<polygon class="st21" points="1415.3,2836.6 1904.2,2021.8 926.5,2021.8 				"/>
				<polygon class="st19" points="2393.1,2836.6 1904.2,3651.3 2881.9,3651.3 				"/>
				<polygon class="st19" points="-2006.7,-1237.3 -2495.6,-422.6 -1517.9,-422.6 				"/>
				<polygon class="st15" points="-1029,-1237.3 -1517.9,-422.6 -540.1,-422.6 				"/>
				<polygon class="st20" points="-51.3,-1237.3 -540.1,-422.6 437.6,-422.6 				"/>
				<polygon class="st16" points="1904.2,-1237.3 1415.3,-422.6 2393.1,-422.6 				"/>
				<polygon class="st22" points="-2984.5,392.2 -3473.3,1207 -2495.6,1207 				"/>
				<polygon class="st20" points="-2984.5,392.2 -2495.6,-422.6 -3473.3,-422.6 				"/>
				<polygon class="st20" points="-2006.7,392.2 -2495.6,1207 -1517.9,1207 				"/>
				<polygon class="st21" points="-2006.7,392.2 -1517.9,-422.6 -2495.6,-422.6 				"/>
				<polygon class="st22" points="-1029,392.2 -1517.9,1207 -540.1,1207 				"/>
				<polygon class="st20" points="-1029,392.2 -540.1,-422.6 -1517.9,-422.6 				"/>
				<polygon class="st15" points="-51.3,392.2 -540.1,1207 437.6,1207 				"/>
				<polygon class="st22" points="-51.3,392.2 437.6,-422.6 -540.1,-422.6 				"/>
				<polygon class="st17" points="926.5,392.2 437.6,1207 1415.3,1207 				"/>
				<polygon class="st21" points="926.5,392.2 1415.3,-422.6 437.6,-422.6 				"/>
				<polygon class="st20" points="1904.2,392.2 1415.3,1207 2393.1,1207 				"/>
				<polygon class="st19" points="1904.2,392.2 2393.1,-422.6 1415.3,-422.6 				"/>
				<polygon class="st16" points="-2984.5,2021.8 -3473.3,2836.6 -2495.6,2836.6 				"/>
				<polygon class="st21" points="-2984.5,2021.8 -2495.6,1207 -3473.3,1207 				"/>
				<polygon class="st17" points="-2006.7,2021.8 -2495.6,2836.6 -1517.9,2836.6 				"/>
				<polygon class="st15" points="-2006.7,2021.8 -1517.9,1207 -2495.6,1207 				"/>
				<polygon class="st15" points="-1029,2021.8 -1517.9,2836.6 -540.1,2836.6 				"/>
				<polygon class="st19" points="-1029,2021.8 -540.1,1207 -1517.9,1207 				"/>
				<polygon class="st21" points="-51.3,2021.8 437.6,1207 -540.1,1207 				"/>
				<polygon class="st22" points="926.5,2021.8 437.6,2836.6 1415.3,2836.6 				"/>
				<polygon class="st20" points="1904.2,2021.8 1415.3,2836.6 2393.1,2836.6 				"/>
				<polygon class="st22" points="1904.2,2021.8 2393.1,1207 1415.3,1207 				"/>
				<polygon class="st18" points="-2984.5,3651.3 -2495.6,2836.6 -3473.3,2836.6 				"/>
				<polygon class="st15" points="-2006.7,3651.3 -1517.9,2836.6 -2495.6,2836.6 				"/>
				<polygon class="st20" points="-1029,3651.3 -540.1,2836.6 -1517.9,2836.6 				"/>
				<polygon class="st17" points="-51.3,3651.3 437.6,2836.6 -540.1,2836.6 				"/>
				<polygon class="st20" points="926.5,3651.3 1415.3,2836.6 437.6,2836.6 				"/>
				<polygon class="st22" points="1904.2,3651.3 2393.1,2836.6 1415.3,2836.6 				"/>
				<polygon class="st22" points="2881.9,392.2 2393.1,1207 3370.8,1207 				"/>
				<polygon class="st20" points="2881.9,392.2 3370.8,-422.6 2393.1,-422.6 				"/>
				<polygon class="st16" points="2881.9,2021.8 2393.1,2836.6 3370.8,2836.6 				"/>
				<polygon class="st21" points="2881.9,2021.8 3370.8,1207 2393.1,1207 				"/>
				<polygon class="st18" points="2881.9,3651.3 3370.8,2836.6 2393.1,2836.6 				"/>
			</g>
			<path class="st13" d="M2476.4,2113.2c2.2,3,4.4,6.1,6.5,9.3l0,0c174.3,336.1,1079.4,843.2,946.4,1191.9
				c-199.4,472.5-1918.7,924-2266.4,1554.1c-199.3,361.2,178.6,977.9,506.6,1127.5c591.2,269.6,2301.3,1320.6,2446.5,2021.7
				c2.4,11.5,7.8,22.2,12,33.1c0.4,1,0.8,2,1.1,3.1l129.6,365.3c1.2,3.4,2.5,6.7,4,9.9c132.9,290.9-635,838.5,477.2,1269.7
				c4262.8,1652.4,3337.3-2453,3761.4-2712c50.7-31.7,105.8-54.9,161.8-73.2c528.1-170.4,867.7-699,777-1231.5l-863.3-5099
				c-98-580.7-399.9-1468-984.7-1354c-19.5,3.8-39.7,3-58.9-2.5c-331.6-94.8-2967.6-827.2-3612.8,221.7
				c-22.3,36.2-56.2,63.8-96.1,78.6C3398.2-315,1438.6,716.2,2476.4,2113.2z"/>
			<rect x="-2984.5" y="3651.3" class="st14" width="5866.4" height="4888.7"/>
			<path class="st13" d="M2476.4,2113.2c2.2,3,4.4,6.1,6.5,9.3l0,0c174.3,336.1,1079.4,843.2,946.4,1191.9
				c-199.4,472.5-1918.7,924-2266.4,1554.1c-199.3,361.2,178.6,977.9,506.6,1127.5c591.2,269.6,2301.3,1320.6,2446.5,2021.7
				c2.4,11.5,7.8,22.2,12,33.1c0.4,1,0.8,2,1.1,3.1l129.6,365.3c1.2,3.4,2.5,6.7,4,9.9c132.9,290.9-635,838.5,477.2,1269.7
				c4262.8,1652.4,3337.3-2453,3761.4-2712c50.7-31.7,105.8-54.9,161.8-73.2c528.1-170.4,867.7-699,777-1231.5l-863.3-5099
				c-98-580.7-399.9-1468-984.7-1354c-19.5,3.8-39.7,3-58.9-2.5c-331.6-94.8-2967.6-827.2-3612.8,221.7
				c-22.3,36.2-56.2,63.8-96.1,78.6C3398.2-315,1438.6,716.2,2476.4,2113.2z"/>
			<g>
				<polygon class="st15" points="-2495.6,4466.1 -2984.5,5280.9 -2006.7,5280.9 				"/>
				<polygon class="st16" points="-2495.6,4466.1 -2006.7,3651.3 -2984.5,3651.3 				"/>
				<polygon class="st17" points="-1517.9,4466.1 -1029,3651.3 -2006.7,3651.3 				"/>
				<polygon class="st18" points="-540.1,4466.1 -1029,5280.9 -51.3,5280.9 				"/>
				<polygon class="st19" points="-540.1,4466.1 -51.3,3651.3 -1029,3651.3 				"/>
				<polygon class="st16" points="437.6,4466.1 -51.3,5280.9 926.5,5280.9 				"/>
				<polygon class="st18" points="437.6,4466.1 926.5,3651.3 -51.3,3651.3 				"/>
				<polygon class="st15" points="1415.3,4466.1 926.5,5280.9 1904.2,5280.9 				"/>
				<polygon class="st20" points="1415.3,4466.1 1904.2,3651.3 926.5,3651.3 				"/>
				<polygon class="st18" points="2393.1,4466.1 1904.2,5280.9 2881.9,5280.9 				"/>
				<polygon class="st15" points="2393.1,4466.1 2881.9,3651.3 1904.2,3651.3 				"/>
				<polygon class="st18" points="-2495.6,6095.7 -2984.5,6910.4 -2006.7,6910.4 				"/>
				<polygon class="st16" points="-2495.6,6095.7 -2006.7,5280.9 -2984.5,5280.9 				"/>
				<polygon class="st21" points="-1517.9,6095.7 -2006.7,6910.4 -1029,6910.4 				"/>
				<polygon class="st17" points="-1517.9,6095.7 -1029,5280.9 -2006.7,5280.9 				"/>
				<polygon class="st18" points="-540.1,6095.7 -1029,6910.4 -51.3,6910.4 				"/>
				<polygon class="st19" points="-540.1,6095.7 -51.3,5280.9 -1029,5280.9 				"/>
				<polygon class="st19" points="437.6,6095.7 -51.3,6910.4 926.5,6910.4 				"/>
				<polygon class="st20" points="437.6,6095.7 926.5,5280.9 -51.3,5280.9 				"/>
				<polygon class="st16" points="1415.3,6095.7 926.5,6910.4 1904.2,6910.4 				"/>
				<polygon class="st18" points="1415.3,6095.7 1904.2,5280.9 926.5,5280.9 				"/>
				<polygon class="st17" points="2393.1,6095.7 1904.2,6910.4 2881.9,6910.4 				"/>
				<polygon class="st15" points="2393.1,6095.7 2881.9,5280.9 1904.2,5280.9 				"/>
				<polygon class="st22" points="-2495.6,7725.2 -2984.5,8540 -2006.7,8540 				"/>
				<polygon class="st16" points="-1517.9,7725.2 -2006.7,8540 -1029,8540 				"/>
				<polygon class="st18" points="-1517.9,7725.2 -1029,6910.4 -2006.7,6910.4 				"/>
				<polygon class="st16" points="-540.1,7725.2 -51.3,6910.4 -1029,6910.4 				"/>
				<polygon class="st16" points="437.6,7725.2 -51.3,8540 926.5,8540 				"/>
				<polygon class="st15" points="437.6,7725.2 926.5,6910.4 -51.3,6910.4 				"/>
				<polygon class="st17" points="1415.3,7725.2 926.5,8540 1904.2,8540 				"/>
				<polygon class="st21" points="1415.3,7725.2 1904.2,6910.4 926.5,6910.4 				"/>
				<polygon class="st19" points="2393.1,7725.2 1904.2,8540 2881.9,8540 				"/>
				<polygon class="st19" points="-2006.7,3651.3 -2495.6,4466.1 -1517.9,4466.1 				"/>
				<polygon class="st15" points="-1029,3651.3 -1517.9,4466.1 -540.1,4466.1 				"/>
				<polygon class="st20" points="-51.3,3651.3 -540.1,4466.1 437.6,4466.1 				"/>
				<polygon class="st16" points="1904.2,3651.3 1415.3,4466.1 2393.1,4466.1 				"/>
				<polygon class="st22" points="-2984.5,5280.9 -3473.3,6095.7 -2495.6,6095.7 				"/>
				<polygon class="st20" points="-2984.5,5280.9 -2495.6,4466.1 -3473.3,4466.1 				"/>
				<polygon class="st20" points="-2006.7,5280.9 -2495.6,6095.7 -1517.9,6095.7 				"/>
				<polygon class="st21" points="-2006.7,5280.9 -1517.9,4466.1 -2495.6,4466.1 				"/>
				<polygon class="st22" points="-1029,5280.9 -1517.9,6095.7 -540.1,6095.7 				"/>
				<polygon class="st20" points="-1029,5280.9 -540.1,4466.1 -1517.9,4466.1 				"/>
				<polygon class="st15" points="-51.3,5280.9 -540.1,6095.7 437.6,6095.7 				"/>
				<polygon class="st22" points="-51.3,5280.9 437.6,4466.1 -540.1,4466.1 				"/>
				<polygon class="st17" points="926.5,5280.9 437.6,6095.7 1415.3,6095.7 				"/>
				<polygon class="st21" points="926.5,5280.9 1415.3,4466.1 437.6,4466.1 				"/>
				<polygon class="st20" points="1904.2,5280.9 1415.3,6095.7 2393.1,6095.7 				"/>
				<polygon class="st19" points="1904.2,5280.9 2393.1,4466.1 1415.3,4466.1 				"/>
				<polygon class="st16" points="-2984.5,6910.4 -3473.3,7725.2 -2495.6,7725.2 				"/>
				<polygon class="st21" points="-2984.5,6910.4 -2495.6,6095.7 -3473.3,6095.7 				"/>
				<polygon class="st17" points="-2006.7,6910.4 -2495.6,7725.2 -1517.9,7725.2 				"/>
				<polygon class="st15" points="-2006.7,6910.4 -1517.9,6095.7 -2495.6,6095.7 				"/>
				<polygon class="st15" points="-1029,6910.4 -1517.9,7725.2 -540.1,7725.2 				"/>
				<polygon class="st19" points="-1029,6910.4 -540.1,6095.7 -1517.9,6095.7 				"/>
				<polygon class="st21" points="-51.3,6910.4 437.6,6095.7 -540.1,6095.7 				"/>
				<polygon class="st22" points="926.5,6910.4 437.6,7725.2 1415.3,7725.2 				"/>
				<polygon class="st20" points="1904.2,6910.4 1415.3,7725.2 2393.1,7725.2 				"/>
				<polygon class="st22" points="1904.2,6910.4 2393.1,6095.7 1415.3,6095.7 				"/>
				<polygon class="st18" points="-2984.5,8540 -2495.6,7725.2 -3473.3,7725.2 				"/>
				<polygon class="st15" points="-2006.7,8540 -1517.9,7725.2 -2495.6,7725.2 				"/>
				<polygon class="st20" points="-1029,8540 -540.1,7725.2 -1517.9,7725.2 				"/>
				<polygon class="st17" points="-51.3,8540 437.6,7725.2 -540.1,7725.2 				"/>
				<polygon class="st20" points="926.5,8540 1415.3,7725.2 437.6,7725.2 				"/>
				<polygon class="st22" points="1904.2,8540 2393.1,7725.2 1415.3,7725.2 				"/>
				<polygon class="st22" points="2881.9,5280.9 2393.1,6095.7 3370.8,6095.7 				"/>
				<polygon class="st20" points="2881.9,5280.9 3370.8,4466.1 2393.1,4466.1 				"/>
				<polygon class="st16" points="2881.9,6910.4 2393.1,7725.2 3370.8,7725.2 				"/>
				<polygon class="st21" points="2881.9,6910.4 3370.8,6095.7 2393.1,6095.7 				"/>
				<polygon class="st18" points="2881.9,8540 3370.8,7725.2 2393.1,7725.2 				"/>
			</g>
			<path class="st13" d="M2476.4,2113.2c2.2,3,4.4,6.1,6.5,9.3l0,0c174.3,336.1,1079.4,843.2,946.4,1191.9
				c-199.4,472.5-1918.7,924-2266.4,1554.1c-199.3,361.2,178.6,977.9,506.6,1127.5c591.2,269.6,2301.3,1320.6,2446.5,2021.7
				c2.4,11.5,7.8,22.2,12,33.1c0.4,1,0.8,2,1.1,3.1l129.6,365.3c1.2,3.4,2.5,6.7,4,9.9c132.9,290.9-635,838.5,477.2,1269.7
				c4262.8,1652.4,3337.3-2453,3761.4-2712c50.7-31.7,105.8-54.9,161.8-73.2c528.1-170.4,867.7-699,777-1231.5l-863.3-5099
				c-98-580.7-399.9-1468-984.7-1354c-19.5,3.8-39.7,3-58.9-2.5c-331.6-94.8-2967.6-827.2-3612.8,221.7
				c-22.3,36.2-56.2,63.8-96.1,78.6C3398.2-315,1438.6,716.2,2476.4,2113.2z"/>
			<rect x="2881.9" y="-1237.3" class="st14" width="5866.4" height="4888.7"/>
			<path class="st13" d="M2476.4,2113.2c2.2,3,4.4,6.1,6.5,9.3l0,0c174.3,336.1,1079.4,843.2,946.4,1191.9
				c-199.4,472.5-1918.7,924-2266.4,1554.1c-199.3,361.2,178.6,977.9,506.6,1127.5c591.2,269.6,2301.3,1320.6,2446.5,2021.7
				c2.4,11.5,7.8,22.2,12,33.1c0.4,1,0.8,2,1.1,3.1l129.6,365.3c1.2,3.4,2.5,6.7,4,9.9c132.9,290.9-635,838.5,477.2,1269.7
				c4262.8,1652.4,3337.3-2453,3761.4-2712c50.7-31.7,105.8-54.9,161.8-73.2c528.1-170.4,867.7-699,777-1231.5l-863.3-5099
				c-98-580.7-399.9-1468-984.7-1354c-19.5,3.8-39.7,3-58.9-2.5c-331.6-94.8-2967.6-827.2-3612.8,221.7
				c-22.3,36.2-56.2,63.8-96.1,78.6C3398.2-315,1438.6,716.2,2476.4,2113.2z"/>
			<g>
				<polygon class="st15" points="3370.8,-422.6 2881.9,392.2 3859.7,392.2 				"/>
				<polygon class="st16" points="3370.8,-422.6 3859.7,-1237.3 2881.9,-1237.3 				"/>
				<polygon class="st17" points="4348.5,-422.6 4837.4,-1237.3 3859.7,-1237.3 				"/>
				<polygon class="st18" points="5326.3,-422.6 4837.4,392.2 5815.1,392.2 				"/>
				<polygon class="st19" points="5326.3,-422.6 5815.1,-1237.3 4837.4,-1237.3 				"/>
				<polygon class="st16" points="6304,-422.6 5815.1,392.2 6792.9,392.2 				"/>
				<polygon class="st18" points="6304,-422.6 6792.9,-1237.3 5815.1,-1237.3 				"/>
				<polygon class="st15" points="7281.7,-422.6 6792.9,392.2 7770.6,392.2 				"/>
				<polygon class="st20" points="7281.7,-422.6 7770.6,-1237.3 6792.9,-1237.3 				"/>
				<polygon class="st18" points="8259.5,-422.6 7770.6,392.2 8748.3,392.2 				"/>
				<polygon class="st15" points="8259.5,-422.6 8748.3,-1237.3 7770.6,-1237.3 				"/>
				<polygon class="st18" points="3370.8,1207 2881.9,2021.8 3859.7,2021.8 				"/>
				<polygon class="st16" points="3370.8,1207 3859.7,392.2 2881.9,392.2 				"/>
				<polygon class="st21" points="4348.5,1207 3859.7,2021.8 4837.4,2021.8 				"/>
				<polygon class="st17" points="4348.5,1207 4837.4,392.2 3859.7,392.2 				"/>
				<polygon class="st18" points="5326.3,1207 4837.4,2021.8 5815.1,2021.8 				"/>
				<polygon class="st19" points="5326.3,1207 5815.1,392.2 4837.4,392.2 				"/>
				<polygon class="st19" points="6304,1207 5815.1,2021.8 6792.9,2021.8 				"/>
				<polygon class="st20" points="6304,1207 6792.9,392.2 5815.1,392.2 				"/>
				<polygon class="st16" points="7281.7,1207 6792.9,2021.8 7770.6,2021.8 				"/>
				<polygon class="st18" points="7281.7,1207 7770.6,392.2 6792.9,392.2 				"/>
				<polygon class="st17" points="8259.5,1207 7770.6,2021.8 8748.3,2021.8 				"/>
				<polygon class="st15" points="8259.5,1207 8748.3,392.2 7770.6,392.2 				"/>
				<polygon class="st22" points="3370.8,2836.6 2881.9,3651.3 3859.7,3651.3 				"/>
				<polygon class="st16" points="4348.5,2836.6 3859.7,3651.3 4837.4,3651.3 				"/>
				<polygon class="st18" points="4348.5,2836.6 4837.4,2021.8 3859.7,2021.8 				"/>
				<polygon class="st16" points="5326.3,2836.6 5815.1,2021.8 4837.4,2021.8 				"/>
				<polygon class="st16" points="6304,2836.6 5815.1,3651.3 6792.9,3651.3 				"/>
				<polygon class="st15" points="6304,2836.6 6792.9,2021.8 5815.1,2021.8 				"/>
				<polygon class="st17" points="7281.7,2836.6 6792.9,3651.3 7770.6,3651.3 				"/>
				<polygon class="st21" points="7281.7,2836.6 7770.6,2021.8 6792.9,2021.8 				"/>
				<polygon class="st19" points="8259.5,2836.6 7770.6,3651.3 8748.3,3651.3 				"/>
				<polygon class="st19" points="3859.7,-1237.3 3370.8,-422.6 4348.5,-422.6 				"/>
				<polygon class="st15" points="4837.4,-1237.3 4348.5,-422.6 5326.3,-422.6 				"/>
				<polygon class="st20" points="5815.1,-1237.3 5326.3,-422.6 6304,-422.6 				"/>
				<polygon class="st16" points="7770.6,-1237.3 7281.7,-422.6 8259.5,-422.6 				"/>
				<polygon class="st22" points="2881.9,392.2 2393.1,1207 3370.8,1207 				"/>
				<polygon class="st20" points="2881.9,392.2 3370.8,-422.6 2393.1,-422.6 				"/>
				<polygon class="st20" points="3859.7,392.2 3370.8,1207 4348.5,1207 				"/>
				<polygon class="st21" points="3859.7,392.2 4348.5,-422.6 3370.8,-422.6 				"/>
				<polygon class="st22" points="4837.4,392.2 4348.5,1207 5326.3,1207 				"/>
				<polygon class="st20" points="4837.4,392.2 5326.3,-422.6 4348.5,-422.6 				"/>
				<polygon class="st15" points="5815.1,392.2 5326.3,1207 6304,1207 				"/>
				<polygon class="st22" points="5815.1,392.2 6304,-422.6 5326.3,-422.6 				"/>
				<polygon class="st17" points="6792.9,392.2 6304,1207 7281.7,1207 				"/>
				<polygon class="st21" points="6792.9,392.2 7281.7,-422.6 6304,-422.6 				"/>
				<polygon class="st20" points="7770.6,392.2 7281.7,1207 8259.5,1207 				"/>
				<polygon class="st19" points="7770.6,392.2 8259.5,-422.6 7281.7,-422.6 				"/>
				<polygon class="st16" points="2881.9,2021.8 2393.1,2836.6 3370.8,2836.6 				"/>
				<polygon class="st21" points="2881.9,2021.8 3370.8,1207 2393.1,1207 				"/>
				<polygon class="st17" points="3859.7,2021.8 3370.8,2836.6 4348.5,2836.6 				"/>
				<polygon class="st15" points="3859.7,2021.8 4348.5,1207 3370.8,1207 				"/>
				<polygon class="st15" points="4837.4,2021.8 4348.5,2836.6 5326.3,2836.6 				"/>
				<polygon class="st19" points="4837.4,2021.8 5326.3,1207 4348.5,1207 				"/>
				<polygon class="st21" points="5815.1,2021.8 6304,1207 5326.3,1207 				"/>
				<polygon class="st22" points="6792.9,2021.8 6304,2836.6 7281.7,2836.6 				"/>
				<polygon class="st20" points="7770.6,2021.8 7281.7,2836.6 8259.5,2836.6 				"/>
				<polygon class="st22" points="7770.6,2021.8 8259.5,1207 7281.7,1207 				"/>
				<polygon class="st18" points="2881.9,3651.3 3370.8,2836.6 2393.1,2836.6 				"/>
				<polygon class="st15" points="3859.7,3651.3 4348.5,2836.6 3370.8,2836.6 				"/>
				<polygon class="st20" points="4837.4,3651.3 5326.3,2836.6 4348.5,2836.6 				"/>
				<polygon class="st17" points="5815.1,3651.3 6304,2836.6 5326.3,2836.6 				"/>
				<polygon class="st20" points="6792.9,3651.3 7281.7,2836.6 6304,2836.6 				"/>
				<polygon class="st22" points="7770.6,3651.3 8259.5,2836.6 7281.7,2836.6 				"/>
				<polygon class="st22" points="8748.3,392.2 8259.5,1207 9237.2,1207 				"/>
				<polygon class="st20" points="8748.3,392.2 9237.2,-422.6 8259.5,-422.6 				"/>
				<polygon class="st16" points="8748.3,2021.8 8259.5,2836.6 9237.2,2836.6 				"/>
				<polygon class="st21" points="8748.3,2021.8 9237.2,1207 8259.5,1207 				"/>
				<polygon class="st18" points="8748.3,3651.3 9237.2,2836.6 8259.5,2836.6 				"/>
			</g>
			<path class="st13" d="M2476.4,2113.2c2.2,3,4.4,6.1,6.5,9.3l0,0c174.3,336.1,1079.4,843.2,946.4,1191.9
				c-199.4,472.5-1918.7,924-2266.4,1554.1c-199.3,361.2,178.6,977.9,506.6,1127.5c591.2,269.6,2301.3,1320.6,2446.5,2021.7
				c2.4,11.5,7.8,22.2,12,33.1c0.4,1,0.8,2,1.1,3.1l129.6,365.3c1.2,3.4,2.5,6.7,4,9.9c132.9,290.9-635,838.5,477.2,1269.7
				c4262.8,1652.4,3337.3-2453,3761.4-2712c50.7-31.7,105.8-54.9,161.8-73.2c528.1-170.4,867.7-699,777-1231.5l-863.3-5099
				c-98-580.7-399.9-1468-984.7-1354c-19.5,3.8-39.7,3-58.9-2.5c-331.6-94.8-2967.6-827.2-3612.8,221.7
				c-22.3,36.2-56.2,63.8-96.1,78.6C3398.2-315,1438.6,716.2,2476.4,2113.2z"/>
			<rect x="2881.9" y="3651.3" class="st14" width="5866.4" height="4888.7"/>
			<path class="st13" d="M2476.4,2113.2c2.2,3,4.4,6.1,6.5,9.3l0,0c174.3,336.1,1079.4,843.2,946.4,1191.9
				c-199.4,472.5-1918.7,924-2266.4,1554.1c-199.3,361.2,178.6,977.9,506.6,1127.5c591.2,269.6,2301.3,1320.6,2446.5,2021.7
				c2.4,11.5,7.8,22.2,12,33.1c0.4,1,0.8,2,1.1,3.1l129.6,365.3c1.2,3.4,2.5,6.7,4,9.9c132.9,290.9-635,838.5,477.2,1269.7
				c4262.8,1652.4,3337.3-2453,3761.4-2712c50.7-31.7,105.8-54.9,161.8-73.2c528.1-170.4,867.7-699,777-1231.5l-863.3-5099
				c-98-580.7-399.9-1468-984.7-1354c-19.5,3.8-39.7,3-58.9-2.5c-331.6-94.8-2967.6-827.2-3612.8,221.7
				c-22.3,36.2-56.2,63.8-96.1,78.6C3398.2-315,1438.6,716.2,2476.4,2113.2z"/>
			<g>
				<polygon class="st15" points="3370.8,4466.1 2881.9,5280.9 3859.7,5280.9 				"/>
				<polygon class="st16" points="3370.8,4466.1 3859.7,3651.3 2881.9,3651.3 				"/>
				<polygon class="st17" points="4348.5,4466.1 4837.4,3651.3 3859.7,3651.3 				"/>
				<polygon class="st18" points="5326.3,4466.1 4837.4,5280.9 5815.1,5280.9 				"/>
				<polygon class="st19" points="5326.3,4466.1 5815.1,3651.3 4837.4,3651.3 				"/>
				<polygon class="st16" points="6304,4466.1 5815.1,5280.9 6792.9,5280.9 				"/>
				<polygon class="st18" points="6304,4466.1 6792.9,3651.3 5815.1,3651.3 				"/>
				<polygon class="st15" points="7281.7,4466.1 6792.9,5280.9 7770.6,5280.9 				"/>
				<polygon class="st20" points="7281.7,4466.1 7770.6,3651.3 6792.9,3651.3 				"/>
				<polygon class="st18" points="8259.5,4466.1 7770.6,5280.9 8748.3,5280.9 				"/>
				<polygon class="st15" points="8259.5,4466.1 8748.3,3651.3 7770.6,3651.3 				"/>
				<polygon class="st18" points="3370.8,6095.7 2881.9,6910.4 3859.7,6910.4 				"/>
				<polygon class="st16" points="3370.8,6095.7 3859.7,5280.9 2881.9,5280.9 				"/>
				<polygon class="st21" points="4348.5,6095.7 3859.7,6910.4 4837.4,6910.4 				"/>
				<polygon class="st17" points="4348.5,6095.7 4837.4,5280.9 3859.7,5280.9 				"/>
				<polygon class="st18" points="5326.3,6095.7 4837.4,6910.4 5815.1,6910.4 				"/>
				<polygon class="st19" points="5326.3,6095.7 5815.1,5280.9 4837.4,5280.9 				"/>
				<polygon class="st19" points="6304,6095.7 5815.1,6910.4 6792.9,6910.4 				"/>
				<polygon class="st20" points="6304,6095.7 6792.9,5280.9 5815.1,5280.9 				"/>
				<polygon class="st16" points="7281.7,6095.7 6792.9,6910.4 7770.6,6910.4 				"/>
				<polygon class="st18" points="7281.7,6095.7 7770.6,5280.9 6792.9,5280.9 				"/>
				<polygon class="st17" points="8259.5,6095.7 7770.6,6910.4 8748.3,6910.4 				"/>
				<polygon class="st15" points="8259.5,6095.7 8748.3,5280.9 7770.6,5280.9 				"/>
				<polygon class="st22" points="3370.8,7725.2 2881.9,8540 3859.7,8540 				"/>
				<polygon class="st16" points="4348.5,7725.2 3859.7,8540 4837.4,8540 				"/>
				<polygon class="st18" points="4348.5,7725.2 4837.4,6910.4 3859.7,6910.4 				"/>
				<polygon class="st16" points="5326.3,7725.2 5815.1,6910.4 4837.4,6910.4 				"/>
				<polygon class="st16" points="6304,7725.2 5815.1,8540 6792.9,8540 				"/>
				<polygon class="st15" points="6304,7725.2 6792.9,6910.4 5815.1,6910.4 				"/>
				<polygon class="st17" points="7281.7,7725.2 6792.9,8540 7770.6,8540 				"/>
				<polygon class="st21" points="7281.7,7725.2 7770.6,6910.4 6792.9,6910.4 				"/>
				<polygon class="st19" points="8259.5,7725.2 7770.6,8540 8748.3,8540 				"/>
				<polygon class="st19" points="3859.7,3651.3 3370.8,4466.1 4348.5,4466.1 				"/>
				<polygon class="st15" points="4837.4,3651.3 4348.5,4466.1 5326.3,4466.1 				"/>
				<polygon class="st20" points="5815.1,3651.3 5326.3,4466.1 6304,4466.1 				"/>
				<polygon class="st16" points="7770.6,3651.3 7281.7,4466.1 8259.5,4466.1 				"/>
				<polygon class="st22" points="2881.9,5280.9 2393.1,6095.7 3370.8,6095.7 				"/>
				<polygon class="st20" points="2881.9,5280.9 3370.8,4466.1 2393.1,4466.1 				"/>
				<polygon class="st20" points="3859.7,5280.9 3370.8,6095.7 4348.5,6095.7 				"/>
				<polygon class="st21" points="3859.7,5280.9 4348.5,4466.1 3370.8,4466.1 				"/>
				<polygon class="st22" points="4837.4,5280.9 4348.5,6095.7 5326.3,6095.7 				"/>
				<polygon class="st20" points="4837.4,5280.9 5326.3,4466.1 4348.5,4466.1 				"/>
				<polygon class="st15" points="5815.1,5280.9 5326.3,6095.7 6304,6095.7 				"/>
				<polygon class="st22" points="5815.1,5280.9 6304,4466.1 5326.3,4466.1 				"/>
				<polygon class="st17" points="6792.9,5280.9 6304,6095.7 7281.7,6095.7 				"/>
				<polygon class="st21" points="6792.9,5280.9 7281.7,4466.1 6304,4466.1 				"/>
				<polygon class="st20" points="7770.6,5280.9 7281.7,6095.7 8259.5,6095.7 				"/>
				<polygon class="st19" points="7770.6,5280.9 8259.5,4466.1 7281.7,4466.1 				"/>
				<polygon class="st16" points="2881.9,6910.4 2393.1,7725.2 3370.8,7725.2 				"/>
				<polygon class="st21" points="2881.9,6910.4 3370.8,6095.7 2393.1,6095.7 				"/>
				<polygon class="st17" points="3859.7,6910.4 3370.8,7725.2 4348.5,7725.2 				"/>
				<polygon class="st15" points="3859.7,6910.4 4348.5,6095.7 3370.8,6095.7 				"/>
				<polygon class="st15" points="4837.4,6910.4 4348.5,7725.2 5326.3,7725.2 				"/>
				<polygon class="st19" points="4837.4,6910.4 5326.3,6095.7 4348.5,6095.7 				"/>
				<polygon class="st21" points="5815.1,6910.4 6304,6095.7 5326.3,6095.7 				"/>
				<polygon class="st22" points="6792.9,6910.4 6304,7725.2 7281.7,7725.2 				"/>
				<polygon class="st20" points="7770.6,6910.4 7281.7,7725.2 8259.5,7725.2 				"/>
				<polygon class="st22" points="7770.6,6910.4 8259.5,6095.7 7281.7,6095.7 				"/>
				<polygon class="st18" points="2881.9,8540 3370.8,7725.2 2393.1,7725.2 				"/>
				<polygon class="st15" points="3859.7,8540 4348.5,7725.2 3370.8,7725.2 				"/>
				<polygon class="st20" points="4837.4,8540 5326.3,7725.2 4348.5,7725.2 				"/>
				<polygon class="st17" points="5815.1,8540 6304,7725.2 5326.3,7725.2 				"/>
				<polygon class="st20" points="6792.9,8540 7281.7,7725.2 6304,7725.2 				"/>
				<polygon class="st22" points="7770.6,8540 8259.5,7725.2 7281.7,7725.2 				"/>
				<polygon class="st22" points="8748.3,5280.9 8259.5,6095.7 9237.2,6095.7 				"/>
				<polygon class="st20" points="8748.3,5280.9 9237.2,4466.1 8259.5,4466.1 				"/>
				<polygon class="st16" points="8748.3,6910.4 8259.5,7725.2 9237.2,7725.2 				"/>
				<polygon class="st21" points="8748.3,6910.4 9237.2,6095.7 8259.5,6095.7 				"/>
				<polygon class="st18" points="8748.3,8540 9237.2,7725.2 8259.5,7725.2 				"/>
			</g>
		</g>
	</g>
</g>
</svg>
